<svg width="74" height="21" viewBox="0 0 74 21" fill="none" xmlns="http://www.w3.org/2000/svg">
<path d="M3.54327 20.0022V17.6415H4.5815C4.84503 17.6415 5.03235 17.6622 5.153 17.7052C5.26889 17.7482 5.36414 17.823 5.43717 17.9328C5.50702 18.0411 5.54194 18.1652 5.54194 18.3053C5.54194 18.482 5.49114 18.6285 5.38478 18.7447C5.27842 18.8609 5.12126 18.9325 4.91012 18.9643C5.01648 19.0232 5.1022 19.0901 5.17047 19.1617C5.24032 19.2333 5.33239 19.3607 5.44828 19.5453L5.74514 20.0054H5.16412L4.8101 19.488C4.67993 19.3066 4.59262 19.192 4.54658 19.1442C4.49737 19.098 4.44815 19.0646 4.39418 19.0471C4.3402 19.0296 4.25765 19.02 4.14176 19.02H4.04016V20.0038H3.54327V20.0022ZM4.0354 18.6396H4.40211C4.63707 18.6396 4.78629 18.63 4.84344 18.6109C4.90218 18.5918 4.94663 18.5584 4.97997 18.5107C5.01489 18.4629 5.03077 18.404 5.03077 18.334C5.03077 18.2544 5.00854 18.1907 4.96568 18.1414C4.92282 18.0936 4.85932 18.0618 4.78153 18.049C4.74184 18.0443 4.6196 18.0411 4.42116 18.0411H4.03699V18.6396H4.0354Z" fill="#6D6E71"/>
<path d="M7.02155 19.4626L7.48986 19.5406C7.43113 19.7061 7.33429 19.8319 7.2057 19.9178C7.07553 20.0038 6.91519 20.0484 6.72151 20.0484C6.41195 20.0484 6.18652 19.9513 6.03888 19.7555C5.92141 19.5995 5.86267 19.4021 5.86267 19.1633C5.86267 18.8784 5.94046 18.6555 6.09286 18.4948C6.24685 18.334 6.44052 18.2528 6.67706 18.2528C6.94059 18.2528 7.14855 18.3372 7.30095 18.5043C7.45494 18.6714 7.52638 18.9293 7.52003 19.2763H6.34051C6.34369 19.41 6.3802 19.5151 6.45322 19.5883C6.52466 19.6631 6.61674 19.7013 6.7231 19.7013C6.79454 19.7013 6.85645 19.6822 6.90566 19.644C6.95964 19.6074 6.99615 19.5469 7.02155 19.4626ZM7.06124 18.9994C7.05806 18.8688 7.02314 18.7701 6.95487 18.7017C6.88661 18.6348 6.80565 18.5998 6.70881 18.5998C6.60404 18.5998 6.51831 18.6364 6.45164 18.7081C6.38337 18.7797 6.35162 18.8768 6.35162 18.9994H7.06124Z" fill="#6D6E71"/>
<path d="M7.74225 19.5326L8.22009 19.4626C8.23914 19.5485 8.28041 19.6154 8.33915 19.66C8.39948 19.7045 8.48361 19.7268 8.59156 19.7268C8.71221 19.7268 8.80112 19.7061 8.86144 19.6615C8.90113 19.6313 8.92177 19.5899 8.92177 19.539C8.92177 19.504 8.91065 19.4737 8.88843 19.453C8.8662 19.4323 8.81382 19.41 8.73127 19.3925C8.35185 19.3113 8.11214 19.2365 8.00895 19.1697C7.86766 19.0758 7.7994 18.9468 7.7994 18.7813C7.7994 18.6317 7.85972 18.5075 7.98196 18.4056C8.1042 18.3037 8.2947 18.2544 8.55188 18.2544C8.79477 18.2544 8.97733 18.2926 9.09639 18.3674C9.21704 18.4438 9.298 18.5552 9.34246 18.7033L8.89637 18.7813C8.87732 18.7144 8.8408 18.6635 8.78683 18.6285C8.73444 18.5934 8.65824 18.5759 8.55664 18.5759C8.43281 18.5759 8.34074 18.5934 8.28676 18.6269C8.25025 18.6508 8.2312 18.6826 8.2312 18.7208C8.2312 18.7542 8.24708 18.7813 8.27883 18.8036C8.32169 18.8338 8.46933 18.8784 8.72015 18.9325C8.97098 18.9882 9.14878 19.0551 9.2472 19.1347C9.34722 19.2158 9.39484 19.3289 9.39484 19.4737C9.39484 19.6313 9.32817 19.7666 9.19164 19.8796C9.0567 19.9926 8.85509 20.0499 8.58839 20.0499C8.3455 20.0499 8.15341 20.0022 8.01371 19.9115C7.87719 19.8175 7.78511 19.6918 7.74225 19.5326Z" fill="#6D6E71"/>
<path d="M10.8236 19.4626L11.2919 19.5406C11.2316 19.7061 11.1364 19.8319 11.0094 19.9178C10.8792 20.0038 10.7172 20.0484 10.5236 20.0484C10.2156 20.0484 9.98858 19.9513 9.83936 19.7555C9.72347 19.5995 9.66632 19.4021 9.66632 19.1633C9.66632 18.8784 9.74252 18.6555 9.89651 18.4948C10.0489 18.334 10.2426 18.2528 10.4791 18.2528C10.7442 18.2528 10.9522 18.3372 11.1046 18.5043C11.257 18.6714 11.33 18.9293 11.3237 19.2763H10.1426C10.1457 19.41 10.1823 19.5151 10.2553 19.5883C10.3283 19.6631 10.4172 19.7013 10.5252 19.7013C10.5982 19.7013 10.6601 19.6822 10.7093 19.644C10.7585 19.6074 10.7966 19.5469 10.8236 19.4626ZM10.8649 18.9994C10.8585 18.8688 10.8236 18.7701 10.7569 18.7017C10.6903 18.6348 10.6077 18.5998 10.5093 18.5998C10.4061 18.5998 10.3204 18.6364 10.2521 18.7081C10.1838 18.7797 10.1505 18.8768 10.1521 18.9994H10.8649Z" fill="#6D6E71"/>
<path d="M12.0507 18.8195L11.63 18.7415C11.6776 18.5759 11.7602 18.4534 11.8777 18.3722C11.9951 18.2926 12.1698 18.2528 12.4 18.2528C12.6079 18.2528 12.7635 18.2767 12.8651 18.3244C12.9667 18.3738 13.0397 18.4343 13.081 18.5075C13.1239 18.5807 13.1445 18.716 13.1445 18.9118L13.1366 19.4403C13.1366 19.5915 13.1445 19.7013 13.1588 19.773C13.1731 19.8446 13.2017 19.921 13.2413 20.0022H12.773C12.7603 19.9719 12.746 19.929 12.7286 19.8717C12.7206 19.8446 12.7159 19.8271 12.7127 19.8191C12.6333 19.8955 12.5476 19.9528 12.4587 19.9911C12.3666 20.0293 12.2714 20.0499 12.1682 20.0499C11.9888 20.0499 11.8459 20.0022 11.7411 19.9067C11.638 19.8112 11.584 19.6902 11.584 19.5438C11.584 19.4467 11.6078 19.3607 11.657 19.2843C11.703 19.2079 11.7713 19.1506 11.857 19.1092C11.9443 19.0694 12.0682 19.0328 12.2301 19.0041C12.4508 18.9643 12.6016 18.9261 12.6857 18.8927V18.8465C12.6857 18.759 12.6635 18.6969 12.619 18.6587C12.573 18.6205 12.4889 18.6014 12.3666 18.6014C12.2825 18.6014 12.2158 18.6173 12.1698 18.6508C12.119 18.681 12.0809 18.7383 12.0507 18.8195ZM12.6825 19.1856C12.6222 19.2047 12.527 19.2286 12.4 19.2556C12.2682 19.2827 12.1825 19.3082 12.1444 19.3336C12.0825 19.375 12.0523 19.4291 12.0523 19.4928C12.0523 19.5565 12.0761 19.6106 12.1253 19.6568C12.1761 19.7029 12.238 19.7252 12.3126 19.7252C12.3968 19.7252 12.4777 19.6998 12.554 19.6456C12.6095 19.6042 12.6476 19.5549 12.6667 19.496C12.6778 19.4578 12.6841 19.3846 12.6841 19.2763V19.1856H12.6825Z" fill="#6D6E71"/>
<path d="M14.0574 20.0022H13.5891V18.291H14.0256V18.533C14.0986 18.4184 14.1653 18.3435 14.2241 18.3069C14.2812 18.2719 14.3495 18.2528 14.4241 18.2528C14.5289 18.2528 14.632 18.2815 14.7305 18.3372L14.5892 18.7303C14.5098 18.6826 14.4368 18.6571 14.3701 18.6571C14.3066 18.6571 14.2495 18.6746 14.2034 18.7097C14.159 18.7447 14.124 18.8068 14.0971 18.8991C14.0717 18.9898 14.059 19.1808 14.059 19.4721V20.0022H14.0574Z" fill="#6D6E71"/>
<path d="M16.4703 18.7876L16.01 18.872C15.9941 18.7845 15.9592 18.7176 15.9052 18.6746C15.8496 18.6301 15.7798 18.6078 15.6925 18.6078C15.5766 18.6078 15.4845 18.6476 15.4146 18.7256C15.3464 18.8036 15.313 18.9357 15.313 19.1203C15.313 19.3257 15.3496 19.4705 15.4194 19.5549C15.4877 19.6393 15.5845 19.6822 15.702 19.6822C15.7909 19.6822 15.8623 19.6584 15.9211 19.609C15.9766 19.5597 16.0163 19.4753 16.0401 19.3559L16.5021 19.4323C16.4545 19.6361 16.3624 19.7905 16.2274 19.8939C16.0925 19.9974 15.9115 20.0499 15.6845 20.0499C15.4258 20.0499 15.2194 19.9704 15.0654 19.8128C14.913 19.6536 14.8368 19.4339 14.8368 19.1538C14.8368 18.8704 14.913 18.6492 15.0654 18.4916C15.2194 18.3324 15.4258 18.2544 15.6877 18.2544C15.9004 18.2544 16.0735 18.299 16.1989 18.3865C16.3259 18.4725 16.4148 18.6078 16.4703 18.7876Z" fill="#6D6E71"/>
<path d="M17.3038 17.6415V18.5091C17.4546 18.3387 17.634 18.2528 17.8435 18.2528C17.9515 18.2528 18.0483 18.2719 18.134 18.3101C18.2213 18.3499 18.2864 18.3992 18.3293 18.4581C18.3722 18.5186 18.4023 18.5855 18.4182 18.6587C18.4341 18.7303 18.442 18.8449 18.442 18.9993V20.0022H17.9753V19.0996C17.9753 18.9198 17.9673 18.8067 17.9483 18.7574C17.9308 18.708 17.8991 18.6698 17.8546 18.6428C17.8102 18.6157 17.753 18.5998 17.6864 18.5998C17.6086 18.5998 17.5387 18.6189 17.4784 18.6555C17.4181 18.6921 17.3736 18.7462 17.345 18.8211C17.3165 18.8943 17.3022 19.0041 17.3022 19.1474V20.0038H16.8323V17.6431H17.3038V17.6415Z" fill="#6D6E71"/>
<path d="M23.6919 19.1347L24.1618 19.2763C24.0872 19.5358 23.965 19.7268 23.7951 19.8541C23.6236 19.9799 23.4046 20.042 23.1442 20.042C22.8188 20.042 22.5505 19.9353 22.3425 19.7204C22.133 19.5055 22.0282 19.2127 22.0282 18.8418C22.0282 18.4486 22.133 18.1414 22.3441 17.9249C22.5537 17.7084 22.8299 17.5986 23.1728 17.5986C23.4728 17.5986 23.7157 17.6845 23.903 17.8533C24.0142 17.9535 24.0967 18.0984 24.1523 18.2862L23.6681 18.4024C23.6379 18.2799 23.5776 18.1828 23.4855 18.1111C23.3935 18.0395 23.2823 18.0045 23.149 18.0045C22.9664 18.0045 22.8188 18.0682 22.7061 18.1939C22.5933 18.3197 22.5362 18.525 22.5362 18.8067C22.5362 19.1076 22.5933 19.3209 22.7061 19.4482C22.8188 19.5756 22.9648 19.6393 23.1442 19.6393C23.276 19.6393 23.3903 19.5979 23.4871 19.5183C23.5824 19.4355 23.6522 19.3082 23.6919 19.1347Z" fill="#6D6E71"/>
<path d="M24.4634 19.1267C24.4634 18.9755 24.5 18.829 24.5777 18.689C24.6539 18.5489 24.7635 18.4406 24.9064 18.3658C25.0461 18.291 25.2048 18.2544 25.3794 18.2544C25.6493 18.2544 25.8684 18.3388 26.0398 18.5075C26.2113 18.6762 26.2986 18.8879 26.2986 19.1458C26.2986 19.4053 26.2129 19.6217 26.0382 19.7921C25.8652 19.9624 25.6461 20.0484 25.381 20.0484C25.2175 20.0484 25.0635 20.0133 24.9143 19.9417C24.7667 19.8717 24.6539 19.7666 24.5762 19.6297C24.5 19.4912 24.4634 19.3241 24.4634 19.1267ZM24.9397 19.1506C24.9397 19.3209 24.981 19.4514 25.0651 19.5438C25.1508 19.6361 25.2524 19.6806 25.3778 19.6806C25.5017 19.6806 25.6064 19.6361 25.689 19.5438C25.77 19.4514 25.8128 19.3193 25.8128 19.1458C25.8128 18.9771 25.77 18.8465 25.689 18.7558C25.6064 18.6651 25.5033 18.6189 25.3778 18.6189C25.254 18.6189 25.1508 18.6651 25.0651 18.7558C24.981 18.8481 24.9397 18.9803 24.9397 19.1506Z" fill="#6D6E71"/>
<path d="M28.2734 20.0021H27.8035V19.1298C27.8035 18.9436 27.794 18.8242 27.7734 18.7701C27.7543 18.716 27.721 18.6746 27.6765 18.6443C27.6321 18.6157 27.5781 18.5982 27.5146 18.5982C27.4336 18.5982 27.3622 18.6205 27.2987 18.6634C27.2336 18.7064 27.1907 18.7637 27.1669 18.8338C27.1431 18.9054 27.132 19.0359 27.132 19.2269V20.0006H26.6621V18.2894H27.0987V18.5393C27.2527 18.3467 27.4463 18.2496 27.6797 18.2496C27.7829 18.2496 27.8766 18.2671 27.9623 18.3037C28.048 18.3403 28.1131 18.3849 28.156 18.4422C28.1988 18.4979 28.229 18.5616 28.2464 18.6332C28.2639 18.7032 28.2734 18.8051 28.2734 18.9356V20.0021Z" fill="#6D6E71"/>
<path d="M28.5878 19.5326L29.064 19.4626C29.0847 19.5485 29.1243 19.6154 29.1863 19.66C29.245 19.7045 29.3291 19.7268 29.4371 19.7268C29.5561 19.7268 29.6466 19.7061 29.7054 19.6615C29.7482 19.6313 29.7673 19.5899 29.7673 19.539C29.7673 19.504 29.7562 19.4737 29.7324 19.453C29.7085 19.4323 29.6562 19.41 29.5752 19.3925C29.1958 19.3113 28.9545 19.2365 28.8529 19.1697C28.7116 19.0758 28.6417 18.9468 28.6417 18.7813C28.6417 18.6317 28.7021 18.5075 28.8243 18.4056C28.9481 18.3037 29.137 18.2544 29.3942 18.2544C29.6387 18.2544 29.8213 18.2926 29.9403 18.3674C30.0594 18.4438 30.1403 18.5552 30.1848 18.7033L29.7403 18.7813C29.7212 18.7144 29.6847 18.6635 29.6308 18.6285C29.5784 18.5934 29.499 18.5759 29.4022 18.5759C29.2767 18.5759 29.1863 18.5934 29.1323 18.6269C29.0974 18.6508 29.0783 18.6826 29.0783 18.7208C29.0783 18.7542 29.0942 18.7813 29.1275 18.8036C29.1704 18.8338 29.3164 18.8784 29.5688 18.9325C29.8213 18.9882 29.9959 19.0551 30.0959 19.1347C30.1943 19.2158 30.2435 19.3289 30.2435 19.4737C30.2435 19.6313 30.1769 19.7666 30.0403 19.8796C29.9054 19.9926 29.7038 20.0499 29.4371 20.0499C29.1958 20.0499 29.0053 20.0022 28.864 19.9115C28.7243 19.8175 28.6322 19.6918 28.5878 19.5326Z" fill="#6D6E71"/>
<path d="M31.8247 20.0022V19.7475C31.7612 19.8382 31.6739 19.9115 31.5691 19.9656C31.4659 20.0213 31.3548 20.0484 31.2389 20.0484C31.1199 20.0484 31.0135 20.0229 30.9183 19.9719C30.8246 19.9226 30.7563 19.851 30.7135 19.7586C30.6722 19.6679 30.65 19.5406 30.65 19.3798V18.2926H31.1199V19.0805C31.1199 19.3225 31.1278 19.4689 31.1469 19.5247C31.1643 19.5804 31.1945 19.6218 31.2405 19.6552C31.2866 19.687 31.3453 19.7029 31.4136 19.7029C31.4929 19.7029 31.5644 19.6807 31.6279 19.6393C31.6898 19.5979 31.7342 19.5438 31.7565 19.4817C31.7803 19.418 31.7914 19.2636 31.7914 19.0169V18.2942H32.2597V20.0054H31.8247V20.0022Z" fill="#6D6E71"/>
<path d="M32.7375 20.0022V17.6415H33.2075V20.0022H32.7375Z" fill="#6D6E71"/>
<path d="M34.5203 18.2926V18.6523H34.198V19.3479C34.198 19.4896 34.2012 19.5708 34.2075 19.5947C34.2123 19.6169 34.2266 19.6376 34.2488 19.6536C34.271 19.6679 34.2964 19.6758 34.3298 19.6758C34.3726 19.6758 34.4361 19.6615 34.5187 19.6329L34.5552 19.9831C34.4457 20.0276 34.3218 20.0499 34.1853 20.0499C34.0996 20.0499 34.025 20.0356 33.9567 20.0085C33.89 19.9815 33.8392 19.9449 33.8075 19.9019C33.7757 19.8589 33.7535 19.7984 33.7424 19.7236C33.7329 19.6711 33.7265 19.5644 33.7265 19.4036V18.6523H33.5011V18.2926H33.7281V17.9503L34.198 17.6861V18.291H34.5203V18.2926Z" fill="#6D6E71"/>
<path d="M35.1728 18.8195L34.7537 18.7415C34.7997 18.5759 34.8823 18.4534 34.9997 18.3722C35.1156 18.2926 35.2903 18.2528 35.5204 18.2528C35.7284 18.2528 35.884 18.2767 35.9872 18.3244C36.0888 18.3738 36.1618 18.4343 36.2015 18.5075C36.2428 18.5807 36.265 18.716 36.265 18.9118L36.257 19.4403C36.257 19.5915 36.2634 19.7013 36.2793 19.773C36.2936 19.8446 36.3221 19.921 36.3618 20.0022H35.8919C35.8808 19.9719 35.8649 19.929 35.8475 19.8717C35.8395 19.8446 35.8348 19.8271 35.8316 19.8191C35.7522 19.8955 35.6665 19.9528 35.5792 19.9911C35.4871 20.0293 35.3903 20.0499 35.2887 20.0499C35.1061 20.0499 34.9664 20.0022 34.8616 19.9067C34.7569 19.8112 34.7045 19.6902 34.7045 19.5438C34.7045 19.4467 34.7283 19.3607 34.7775 19.2843C34.8235 19.2079 34.8918 19.1506 34.9775 19.1092C35.0632 19.0694 35.1871 19.0328 35.349 19.0041C35.5681 18.9643 35.7205 18.9261 35.8046 18.8927V18.8465C35.8046 18.759 35.7824 18.6969 35.7363 18.6587C35.6919 18.6205 35.6078 18.6014 35.4839 18.6014C35.3998 18.6014 35.3347 18.6173 35.2887 18.6508C35.241 18.681 35.2029 18.7383 35.1728 18.8195ZM35.8046 19.1856C35.7459 19.2047 35.649 19.2286 35.5204 19.2556C35.3919 19.2827 35.3061 19.3082 35.2664 19.3336C35.2061 19.375 35.1744 19.4291 35.1744 19.4928C35.1744 19.5565 35.1998 19.6106 35.2474 19.6568C35.2966 19.7029 35.3585 19.7252 35.4347 19.7252C35.5189 19.7252 35.5998 19.6998 35.676 19.6456C35.7316 19.6042 35.7681 19.5549 35.7887 19.496C35.7998 19.4578 35.8062 19.3846 35.8062 19.2763V19.1856H35.8046Z" fill="#6D6E71"/>
<path d="M38.3351 20.0021H37.8668V19.1298C37.8668 18.9436 37.8588 18.8242 37.8382 18.7701C37.8191 18.716 37.7858 18.6746 37.7398 18.6443C37.6969 18.6157 37.6429 18.5982 37.5794 18.5982C37.4985 18.5982 37.4254 18.6205 37.3619 18.6634C37.2984 18.7064 37.254 18.7637 37.2318 18.8338C37.2064 18.9054 37.1952 19.0359 37.1952 19.2269V20.0006H36.7269V18.2894H37.1635V18.5393C37.3175 18.3467 37.5127 18.2496 37.7445 18.2496C37.8477 18.2496 37.9414 18.2671 38.0271 18.3037C38.1128 18.3403 38.1763 18.3849 38.2208 18.4422C38.2652 18.4979 38.2938 18.5616 38.3113 18.6332C38.3271 18.7032 38.3367 18.8051 38.3367 18.9356V20.0021H38.3351Z" fill="#6D6E71"/>
<path d="M40.3512 18.7876L39.8908 18.872C39.8718 18.7845 39.8416 18.7176 39.7845 18.6746C39.7305 18.6301 39.6606 18.6078 39.5749 18.6078C39.459 18.6078 39.3654 18.6476 39.2971 18.7256C39.2288 18.8036 39.1939 18.9357 39.1939 19.1203C39.1939 19.3257 39.2304 19.4705 39.2987 19.5549C39.3701 19.6393 39.4654 19.6822 39.5828 19.6822C39.6717 19.6822 39.7448 19.6584 39.8035 19.609C39.8591 19.5597 39.8988 19.4753 39.9226 19.3559L40.3829 19.4323C40.3353 19.6361 40.2432 19.7905 40.1083 19.8939C39.9734 19.9974 39.7924 20.0499 39.5638 20.0499C39.305 20.0499 39.1002 19.9704 38.9463 19.8128C38.7923 19.6536 38.7177 19.4339 38.7177 19.1538C38.7177 18.8704 38.7923 18.6492 38.9463 18.4916C39.1002 18.3324 39.3066 18.2544 39.5686 18.2544C39.7829 18.2544 39.9543 18.299 40.0797 18.3865C40.2036 18.4725 40.2956 18.6078 40.3512 18.7876Z" fill="#6D6E71"/>
<path d="M40.4877 18.2926H40.9799L41.4037 19.5087L41.8149 18.2926H42.3086L41.6847 19.9385L41.5704 20.2441C41.5291 20.3444 41.491 20.4208 41.4545 20.4734C41.4164 20.5259 41.3736 20.5689 41.3243 20.6007C41.2767 20.6341 41.2164 20.6596 41.1465 20.6771C41.0751 20.6946 40.9973 20.7058 40.9084 20.7058C40.8179 20.7058 40.729 20.6946 40.6433 20.6771L40.61 20.3237C40.6814 20.3381 40.7481 20.346 40.8052 20.346C40.9116 20.346 40.991 20.3142 41.0434 20.2505C41.0942 20.1884 41.1338 20.1088 41.1608 20.0102L40.4877 18.2926Z" fill="#6D6E71"/>
<path d="M45.8916 19.2445L46.3679 19.1999C46.3964 19.3527 46.4552 19.4642 46.5425 19.5358C46.6298 19.6074 46.7504 19.644 46.8997 19.644C47.0568 19.644 47.1775 19.6122 47.2569 19.5469C47.3378 19.4833 47.3775 19.4069 47.3775 19.3209C47.3775 19.2652 47.3616 19.219 47.3251 19.1808C47.2918 19.141 47.2346 19.1076 47.1505 19.079C47.0933 19.0599 46.9616 19.0248 46.7568 18.9739C46.4933 18.9086 46.3075 18.8306 46.2028 18.7367C46.0535 18.6062 45.9789 18.447 45.9789 18.2592C45.9789 18.1398 46.0138 18.0252 46.0837 17.9185C46.152 17.8135 46.2551 17.7339 46.3869 17.6782C46.5187 17.6225 46.6774 17.5954 46.8647 17.5954C47.1695 17.5954 47.3997 17.6607 47.5537 17.7896C47.7077 17.9201 47.7887 18.0936 47.7982 18.3101L47.3061 18.3292C47.2838 18.2082 47.2378 18.1207 47.1695 18.0666C47.1013 18.014 46.9965 17.9886 46.86 17.9886C46.7171 17.9886 46.6076 18.0156 46.525 18.0729C46.4726 18.1095 46.4488 18.1589 46.4488 18.2194C46.4488 18.2751 46.4726 18.3229 46.5234 18.3642C46.5838 18.4152 46.7346 18.4677 46.9743 18.5234C47.2156 18.5791 47.3934 18.6364 47.5061 18.6953C47.6204 18.7542 47.7109 18.8338 47.776 18.9357C47.8395 19.0392 47.8728 19.1633 47.8728 19.3129C47.8728 19.4483 47.8347 19.5756 47.7569 19.695C47.6791 19.8128 47.568 19.9019 47.4267 19.9592C47.2854 20.0165 47.1092 20.0452 46.8965 20.0452C46.5885 20.0452 46.3504 19.9767 46.1869 19.8398C46.0218 19.7061 45.9218 19.5071 45.8916 19.2445Z" fill="#6D6E71"/>
<path d="M49.3095 19.4626L49.7794 19.5406C49.7207 19.7061 49.6254 19.8319 49.4968 19.9178C49.3667 20.0038 49.2047 20.0484 49.0111 20.0484C48.7047 20.0484 48.4761 19.9513 48.33 19.7555C48.2141 19.5995 48.1538 19.4021 48.1538 19.1633C48.1538 18.8784 48.2316 18.6555 48.384 18.4948C48.5396 18.334 48.7332 18.2528 48.9682 18.2528C49.2317 18.2528 49.4413 18.3372 49.5953 18.5043C49.7477 18.6714 49.8207 18.9293 49.8143 19.2763H48.6332C48.6364 19.41 48.6745 19.5151 48.7475 19.5883C48.819 19.6631 48.9079 19.7013 49.0158 19.7013C49.0904 19.7013 49.1508 19.6822 49.2016 19.644C49.2476 19.6074 49.2841 19.5469 49.3095 19.4626ZM49.3508 18.9994C49.3476 18.8688 49.3111 18.7701 49.2444 18.7017C49.1777 18.6348 49.0936 18.5998 48.9968 18.5998C48.892 18.5998 48.8063 18.6364 48.7396 18.7081C48.6729 18.7797 48.638 18.8768 48.6396 18.9994H49.3508Z" fill="#6D6E71"/>
<path d="M50.6446 20.0022H50.1731V18.291H50.6112V18.533C50.6843 18.4184 50.7494 18.3435 50.8081 18.3069C50.8684 18.2719 50.9335 18.2528 51.0081 18.2528C51.1145 18.2528 51.2161 18.2815 51.3145 18.3372L51.1748 18.7303C51.0939 18.6826 51.0224 18.6571 50.9541 18.6571C50.8891 18.6571 50.8335 18.6746 50.789 18.7097C50.7446 18.7447 50.7081 18.8068 50.6811 18.8991C50.6557 18.9898 50.643 19.1808 50.643 19.4721V20.0022H50.6446Z" fill="#6D6E71"/>
<path d="M52.0067 20.0022L51.2955 18.291H51.7892L52.121 19.1633L52.2178 19.4546C52.2432 19.3798 52.2575 19.3321 52.2638 19.3082C52.2813 19.2604 52.2956 19.2111 52.3131 19.1633L52.648 18.291H53.1306L52.429 20.0022H52.0067Z" fill="#6D6E71"/>
<path d="M53.4211 18.0602V17.6415H53.891V18.0602H53.4211ZM53.4211 20.0022V18.291H53.891V20.0022H53.4211Z" fill="#6D6E71"/>
<path d="M55.9088 18.7876L55.4452 18.872C55.4293 18.7845 55.396 18.7176 55.3404 18.6746C55.2849 18.6301 55.2166 18.6078 55.1293 18.6078C55.0134 18.6078 54.9197 18.6476 54.8531 18.7256C54.7848 18.8036 54.7499 18.9357 54.7499 19.1203C54.7499 19.3257 54.7848 19.4705 54.8562 19.5549C54.9261 19.6393 55.0213 19.6822 55.1388 19.6822C55.2293 19.6822 55.3023 19.6584 55.3579 19.609C55.4135 19.5597 55.4547 19.4753 55.477 19.3559L55.9405 19.4323C55.8913 19.6361 55.8008 19.7905 55.6643 19.8939C55.5309 19.9974 55.3484 20.0499 55.1213 20.0499C54.8642 20.0499 54.6578 19.9704 54.5022 19.8128C54.3482 19.6536 54.272 19.4339 54.272 19.1538C54.272 18.8704 54.3482 18.6492 54.5022 18.4916C54.6546 18.3324 54.8642 18.2544 55.1245 18.2544C55.3373 18.2544 55.5071 18.299 55.6341 18.3865C55.7627 18.4725 55.8516 18.6078 55.9088 18.7876Z" fill="#6D6E71"/>
<path d="M57.2915 19.4626L57.7598 19.5406C57.7011 19.7061 57.6027 19.8319 57.4741 19.9178C57.3471 20.0038 57.1851 20.0484 56.9915 20.0484C56.6835 20.0484 56.4549 19.9513 56.3073 19.7555C56.1898 19.5995 56.1342 19.4021 56.1342 19.1633C56.1342 18.8784 56.2104 18.6555 56.3628 18.4948C56.5168 18.334 56.7105 18.2528 56.9454 18.2528C57.2105 18.2528 57.4185 18.3372 57.5693 18.5043C57.7249 18.6714 57.7979 18.9293 57.7916 19.2763H56.6089C56.6136 19.41 56.6517 19.5151 56.7232 19.5883C56.7978 19.6631 56.8867 19.7013 56.9931 19.7013C57.0645 19.7013 57.1264 19.6822 57.1756 19.644C57.228 19.6074 57.2645 19.5469 57.2915 19.4626ZM57.3312 18.9994C57.328 18.8688 57.2915 18.7701 57.2248 18.7017C57.1566 18.6348 57.074 18.5998 56.9772 18.5998C56.874 18.5998 56.7883 18.6364 56.72 18.7081C56.6549 18.7797 56.6184 18.8768 56.6216 18.9994H57.3312Z" fill="#6D6E71"/>
<path d="M1.63672 18.9373V18.9086C1.55734 18.9198 1.4986 18.9373 1.45892 18.9612C1.41764 18.985 1.35096 19.0439 1.25413 19.1379C1.15729 19.2318 1.04775 19.2795 0.928688 19.2795C0.8128 19.2795 0.7112 19.2366 0.625475 19.1506C0.539749 19.0646 0.498474 18.9628 0.498474 18.845C0.498474 18.7335 0.539749 18.6396 0.623887 18.5569C0.708025 18.4757 0.808038 18.4343 0.922338 18.4343C1.04934 18.4343 1.16364 18.4836 1.26206 18.5855C1.35255 18.6794 1.42082 18.7383 1.46527 18.7638C1.5113 18.7893 1.56845 18.8036 1.63672 18.8036C1.63672 18.7415 1.62402 18.6874 1.59385 18.6396C1.56528 18.5903 1.51924 18.533 1.44939 18.4677C1.38113 18.404 1.3335 18.3436 1.30651 18.291C1.27953 18.2385 1.26524 18.1764 1.26524 18.108C1.26524 17.9949 1.3081 17.8994 1.38907 17.8151C1.4732 17.7323 1.57322 17.6925 1.68752 17.6925C1.80658 17.6925 1.90818 17.7339 1.9939 17.8135C2.07963 17.8931 2.12249 17.9886 2.12249 18.1C2.12249 18.1748 2.10979 18.2401 2.08281 18.2926C2.05741 18.3451 2.00978 18.404 1.93993 18.4661C1.86849 18.5282 1.82087 18.5823 1.79547 18.6285C1.76848 18.6762 1.7526 18.7351 1.74625 18.8068C1.81452 18.8068 1.87325 18.7924 1.92247 18.7622C1.97168 18.7335 2.03994 18.6715 2.12726 18.5775C2.21616 18.4836 2.32252 18.4375 2.44793 18.4375C2.56541 18.4375 2.66542 18.4789 2.74956 18.5616C2.8337 18.6444 2.87656 18.7447 2.87656 18.8641C2.87656 18.9819 2.8337 19.0806 2.75115 19.1617C2.66859 19.2413 2.56858 19.2843 2.45269 19.2843C2.37967 19.2843 2.31617 19.27 2.26061 19.2445C2.20663 19.219 2.14789 19.1713 2.08122 19.1044C2.01613 19.036 1.95898 18.9866 1.90977 18.9596C1.85897 18.9309 1.80499 18.9166 1.74467 18.9166C1.74467 18.9739 1.76054 19.0296 1.79229 19.0837C1.82404 19.1379 1.86214 19.1888 1.91135 19.2365L1.93834 19.2588L1.96374 19.2859L1.98914 19.3082C2.07646 19.3941 2.12091 19.4992 2.12091 19.6202C2.12091 19.7332 2.07804 19.8303 1.9939 19.9115C1.90977 19.9927 1.80817 20.034 1.69069 20.034C1.57322 20.034 1.47162 19.9927 1.38748 19.9099C1.30651 19.8271 1.26365 19.7284 1.26365 19.6138C1.26365 19.496 1.30651 19.3973 1.38907 19.3177L1.45574 19.2572C1.57639 19.1363 1.63672 19.0312 1.63672 18.9373Z" fill="#0072BC"/>
<path d="M20.2994 18.9373V18.9086C20.2201 18.9198 20.1597 18.9373 20.12 18.9612C20.0788 18.985 20.0121 19.0439 19.9137 19.1379C19.8168 19.2318 19.7073 19.2795 19.5882 19.2795C19.4723 19.2795 19.3707 19.2366 19.285 19.1506C19.2009 19.0646 19.1596 18.9628 19.1596 18.845C19.1596 18.7335 19.2009 18.6396 19.285 18.5569C19.3676 18.4757 19.4676 18.4343 19.5819 18.4343C19.7089 18.4343 19.8248 18.4836 19.9232 18.5855C20.0137 18.6794 20.0819 18.7383 20.1264 18.7638C20.1708 18.7893 20.228 18.8036 20.2978 18.8036C20.2978 18.7415 20.2836 18.6874 20.2534 18.6396C20.2248 18.5903 20.1788 18.533 20.1089 18.4677C20.0407 18.404 19.993 18.3436 19.9661 18.291C19.9391 18.2385 19.9248 18.1764 19.9248 18.108C19.9248 17.9949 19.9661 17.8994 20.0486 17.8151C20.1327 17.7323 20.2312 17.6925 20.3455 17.6925C20.4645 17.6925 20.5677 17.7339 20.6519 17.8135C20.7376 17.8931 20.7804 17.9886 20.7804 18.1C20.7804 18.1748 20.7677 18.2401 20.7408 18.2926C20.7154 18.3451 20.6677 18.404 20.5979 18.4661C20.5264 18.5282 20.4804 18.5823 20.4534 18.6285C20.428 18.6762 20.4121 18.7351 20.4058 18.8068C20.4741 18.8068 20.5328 18.7924 20.582 18.7622C20.6312 18.7335 20.6995 18.6715 20.7868 18.5775C20.8757 18.4836 20.9821 18.4375 21.1075 18.4375C21.2234 18.4375 21.325 18.4789 21.4091 18.5616C21.4932 18.6444 21.5345 18.7447 21.5345 18.8641C21.5345 18.9819 21.4917 19.0806 21.4107 19.1617C21.3281 19.2413 21.2265 19.2843 21.1122 19.2843C21.0392 19.2843 20.9741 19.27 20.9202 19.2445C20.8662 19.219 20.809 19.1713 20.7408 19.1044C20.6757 19.036 20.6185 18.9866 20.5693 18.9596C20.5185 18.9309 20.4629 18.9166 20.4042 18.9166C20.4042 18.9739 20.4201 19.0296 20.4518 19.0837C20.4836 19.1379 20.5233 19.1888 20.5709 19.2365L20.5979 19.2588L20.6233 19.2859L20.6487 19.3082C20.7376 19.3941 20.7804 19.4992 20.7804 19.6202C20.7804 19.7332 20.7376 19.8303 20.6534 19.9115C20.5693 19.9927 20.4693 20.034 20.3518 20.034C20.2343 20.034 20.1327 19.9927 20.0486 19.9099C19.9661 19.8271 19.9248 19.7284 19.9248 19.6138C19.9248 19.496 19.9661 19.3973 20.0502 19.3177L20.1185 19.2572C20.2391 19.1363 20.2994 19.0312 20.2994 18.9373Z" fill="#0072BC"/>
<path d="M44.1358 18.9373V18.9086C44.0548 18.9198 43.9961 18.9373 43.9564 18.9612C43.9151 18.985 43.8485 19.0439 43.75 19.1379C43.6532 19.2318 43.5453 19.2795 43.4246 19.2795C43.3071 19.2795 43.2055 19.2366 43.1214 19.1506C43.0372 19.0646 42.9944 18.9628 42.9944 18.845C42.9944 18.7335 43.0372 18.6396 43.1198 18.5569C43.2039 18.4757 43.3024 18.4343 43.4198 18.4343C43.5453 18.4343 43.6611 18.4836 43.7596 18.5855C43.8516 18.6794 43.9199 18.7383 43.9644 18.7638C44.0104 18.7893 44.0659 18.8036 44.1358 18.8036C44.1358 18.7415 44.1215 18.6874 44.0914 18.6396C44.0644 18.5903 44.0167 18.533 43.9469 18.4677C43.8786 18.404 43.8326 18.3436 43.804 18.291C43.777 18.2385 43.7643 18.1764 43.7643 18.108C43.7643 17.9949 43.804 17.8994 43.8866 17.8151C43.9723 17.7323 44.0707 17.6925 44.1866 17.6925C44.3041 17.6925 44.4057 17.7339 44.493 17.8135C44.5787 17.8931 44.62 17.9886 44.62 18.1C44.62 18.1748 44.6089 18.2401 44.5819 18.2926C44.5565 18.3451 44.5089 18.404 44.4374 18.4661C44.3676 18.5282 44.3184 18.5823 44.293 18.6285C44.2676 18.6762 44.2517 18.7351 44.2453 18.8068C44.3136 18.8068 44.3723 18.7924 44.4216 18.7622C44.4692 18.7335 44.5374 18.6715 44.6248 18.5775C44.7152 18.4836 44.82 18.4375 44.947 18.4375C45.0645 18.4375 45.1645 18.4789 45.2471 18.5616C45.3312 18.6444 45.3741 18.7447 45.3741 18.8641C45.3741 18.9819 45.3312 19.0806 45.2486 19.1617C45.1677 19.2413 45.0661 19.2843 44.9502 19.2843C44.8756 19.2843 44.8137 19.27 44.7581 19.2445C44.7041 19.219 44.647 19.1713 44.5803 19.1044C44.5152 19.036 44.4581 18.9866 44.4073 18.9596C44.3581 18.9309 44.3025 18.9166 44.2438 18.9166C44.2438 18.9739 44.258 19.0296 44.2898 19.0837C44.3215 19.1379 44.3612 19.1888 44.4089 19.2365L44.4343 19.2588L44.4612 19.2859L44.4866 19.3082C44.574 19.3941 44.6168 19.4992 44.6168 19.6202C44.6168 19.7332 44.5755 19.8303 44.4898 19.9115C44.4057 19.9927 44.3057 20.034 44.1882 20.034C44.0707 20.034 43.9691 19.9927 43.8834 19.9099C43.8008 19.8271 43.7612 19.7284 43.7612 19.6138C43.7612 19.496 43.8008 19.3973 43.885 19.3177L43.9532 19.2572C44.0771 19.1363 44.1358 19.0312 44.1358 18.9373Z" fill="#0072BC"/>
<path d="M6.91673 3.99665C7.63587 4.31183 8.20579 4.96128 8.6233 5.94342C9.00907 6.84597 9.20274 7.86631 9.20274 9.00604C9.20274 10.2269 8.98843 11.2855 8.5598 12.188C8.09625 13.1797 7.45807 13.7687 6.64686 13.9581C6.32936 14.0266 5.97375 14.06 5.57847 14.06H0.736572V3.65601H5.30859C5.84834 3.65601 6.38492 3.76902 6.91673 3.99665ZM7.14692 9.05061C7.14692 8.09235 7.0231 7.30441 6.77544 6.69157C6.45953 5.92113 5.98169 5.53592 5.34193 5.53592H2.84637V12.2676H5.5102C6.09123 12.2676 6.52144 11.9174 6.80243 11.2155C7.03421 10.6408 7.14692 9.91973 7.14692 9.05061Z" fill="#0072BC"/>
<path d="M16.1306 14.1221H12.9032C12.1158 14.1221 11.4364 13.7432 10.8585 12.9808C10.2807 12.2215 9.99176 11.346 9.99176 10.3511C9.99176 9.2671 10.3077 8.33272 10.9363 7.54159C11.5682 6.75365 12.2714 6.35889 13.0477 6.35889H16.1164V7.9475H13.8685C13.5843 7.9475 13.3446 7.97297 13.1461 8.02709C12.9477 8.08121 12.7635 8.18627 12.5969 8.34386C12.2873 8.63834 12.1333 9.0347 12.1333 9.53452H16.1021V11.1518H12.1333C12.1333 11.3922 12.1555 11.5975 12.2047 11.763C12.254 11.9318 12.354 12.0989 12.5032 12.2645C12.654 12.4316 12.8334 12.5414 13.0429 12.5956C13.2493 12.6513 13.5033 12.6799 13.805 12.6799H16.1275V14.1221H16.1306Z" fill="#0072BC"/>
<path d="M23.811 11.693C23.811 12.3472 23.6236 12.9027 23.249 13.366C22.8743 13.8308 22.3997 14.06 21.825 14.06H17.28V12.6512H21.0122C21.2773 12.6512 21.498 12.578 21.6805 12.4332C21.8615 12.2867 21.9504 12.0782 21.9504 11.8044C21.9504 11.1725 21.5631 10.8557 20.7868 10.8557H18.8833C18.4769 10.8557 18.0832 10.6392 17.7038 10.2031C17.3244 9.7669 17.1339 9.29891 17.1339 8.79272C17.1339 8.07959 17.2768 7.50654 17.5578 7.07039C17.8832 6.57693 18.3658 6.32861 18.9992 6.32861H23.3633V7.79944H19.4644C19.3151 7.79944 19.185 7.88062 19.0723 8.04298C18.9627 8.20375 18.9072 8.3884 18.9072 8.59374C18.9072 8.81978 18.9802 9.01398 19.1262 9.17475C19.2723 9.33552 19.4469 9.41829 19.6501 9.41829H21.7091C22.3568 9.41829 22.868 9.63159 23.2442 10.0614C23.6236 10.4896 23.811 11.034 23.811 11.693Z" fill="#0072BC"/>
<path d="M27.1574 14.06H25.2969V3.65601H27.1574V14.06ZM32.6915 14.06H30.0848L27.24 10.3129L30.0975 6.32386H32.6788L29.5816 10.2381L32.6915 14.06Z" fill="#0072BC"/>
<path d="M37.3175 7.90291H35.5109V11.3921C35.5109 11.7073 35.6094 11.97 35.8046 12.1769C36.0269 12.3854 36.3221 12.4889 36.6889 12.4889H37.2381V13.9884H35.5252C35.0125 13.9884 34.5727 13.7814 34.2108 13.366C34.0012 13.1176 33.8615 12.8454 33.7996 12.5478C33.7393 12.2517 33.7075 11.8983 33.7075 11.494V7.90291H32.5534V6.28564H33.7075V3.58118H35.5109V6.28564H37.3175V7.90291Z" fill="#0072BC"/>
<path d="M45.563 10.1808C45.563 11.5163 45.1836 12.543 44.4279 13.2561C43.731 13.912 42.7833 14.2383 41.5831 14.2383C40.3862 14.2383 39.4559 13.9422 38.7955 13.3469C38.0287 12.6624 37.6461 11.5959 37.6461 10.1505C37.6461 8.94078 38.0573 7.98889 38.8875 7.29486C39.6273 6.66929 40.5401 6.35889 41.6228 6.35889C42.8135 6.35889 43.766 6.69316 44.4867 7.36331C45.2042 8.03187 45.563 8.97103 45.563 10.1808ZM43.5056 10.1744C43.5056 9.55044 43.3326 9.02674 42.9865 8.6081C42.6372 8.18468 42.1626 7.97615 41.5625 7.97615C41.018 7.97615 40.5655 8.19105 40.2084 8.62083C39.8528 9.05221 39.6749 9.59342 39.6749 10.2461C39.6749 10.9974 39.8559 11.5959 40.2163 12.0416C40.5782 12.4889 41.045 12.7086 41.6165 12.7086C42.2689 12.7086 42.7547 12.4778 43.0722 12.0114C43.3611 11.5848 43.5056 10.9751 43.5056 10.1744Z" fill="#0072BC"/>
<path d="M53.7243 10.0328C53.7243 11.2616 53.4402 12.2406 52.8718 12.9712C52.3019 13.6987 51.5526 14.0616 50.6239 14.0616H48.6237V16.8854H46.7647V6.35889H50.4493C51.4939 6.35889 52.3067 6.7059 52.8877 7.39833C53.4465 8.0637 53.7243 8.94237 53.7243 10.0328ZM51.8654 10.1505C51.8654 9.50587 51.6828 8.9758 51.3113 8.56512C50.9446 8.15284 50.4826 7.94591 49.9318 7.94591H48.6237V12.4443H50.0635C50.597 12.4443 51.0303 12.2342 51.3637 11.8108C51.6987 11.3906 51.8654 10.8366 51.8654 10.1505Z" fill="#0072BC"/>
<path d="M72.8522 13.557C72.1934 15.3112 71.0822 16.7199 69.5153 17.7864C67.9468 18.8513 66.1768 19.3846 64.2067 19.3846C61.8016 19.3846 59.8236 18.6094 58.2773 17.059C56.7279 15.5085 55.9564 13.5124 55.9564 11.069C55.9564 9.26869 56.3723 7.60367 57.2058 6.07396C58.0392 4.54424 59.1584 3.37268 60.5602 2.55927C61.9604 1.74427 63.5367 1.33836 65.2878 1.33836C67.3087 1.33836 68.9422 1.96234 70.1884 3.20554C71.2949 4.31343 71.9077 5.69829 72.0315 7.36013H68.331L68.8978 5.4245L66.3292 5.54548L65.9736 6.78708L65.8037 7.35854H64.013L63.2796 8.511H65.464L64.4321 11.9843C64.2702 12.5494 64.1908 13.0062 64.1908 13.358C64.1908 13.9629 64.3749 14.4373 64.7448 14.7811C65.1131 15.1249 65.6513 15.2968 66.3609 15.2968C67.9151 15.2968 69.2962 14.6919 70.5043 13.479C71.9426 12.0289 72.6633 10.1792 72.6633 7.92999C72.6633 6.47986 72.3569 5.20324 71.7394 4.10331C71.1219 3.00338 70.2487 2.15177 69.1184 1.55007C67.9881 0.949959 66.6387 0.649109 65.0687 0.649109C62.1112 0.649109 59.6696 1.60419 57.7487 3.51435C55.8262 5.4245 54.8642 7.81538 54.8642 10.6886C54.8642 13.3739 55.7389 15.5881 57.4899 17.3327C59.241 19.0774 61.4698 19.9497 64.1797 19.9497C66.3133 19.9497 68.1913 19.4021 69.8074 18.3053C71.4235 17.2086 72.6554 15.6263 73.5015 13.5554H72.8522V13.557ZM71.3282 11.2505C70.8424 12.2788 70.2201 13.0811 69.4629 13.6621C68.7057 14.2415 68.0596 14.5296 67.5246 14.5296C67.261 14.5296 67.0499 14.45 66.8896 14.2892C66.7276 14.1285 66.6483 13.912 66.6483 13.6398C66.6483 13.3103 66.753 12.7834 66.9578 12.0591L67.9929 8.51259H72.0267C71.9648 9.46449 71.7394 10.3798 71.3282 11.2505ZM59.3664 6.78867L57.8233 11.9859C57.6598 12.551 57.582 13.0078 57.582 13.3596C57.582 13.9645 57.7662 14.4389 58.136 14.7827C58.5075 15.1265 59.0441 15.2984 59.7521 15.2984C61.3047 15.2984 62.6874 14.6935 63.8955 13.4806L62.8573 13.6605C62.1 14.2399 61.4523 14.528 60.9174 14.528C60.6538 14.528 60.4443 14.4484 60.2824 14.2876C60.1204 14.1269 60.0395 13.9104 60.0395 13.6382C60.0395 13.3087 60.1442 12.7818 60.349 12.0575L62.289 5.4245L59.722 5.54548L59.3664 6.78867ZM60.9682 3.62577C60.8666 3.51912 60.7475 3.46659 60.6157 3.46659C60.4967 3.46659 60.3919 3.50957 60.3062 3.59712C60.2189 3.68467 60.1744 3.78495 60.1744 3.90115C60.1744 4.0269 60.2189 4.13515 60.3078 4.22588C60.3951 4.31661 60.4998 4.36118 60.6221 4.36118C60.7459 4.36118 60.8586 4.31184 60.9586 4.21155C61.0602 4.11286 61.1317 4.04919 61.1714 4.02531C61.2142 3.99984 61.2761 3.98233 61.3571 3.97119V4.00144C61.3571 4.10331 61.2952 4.21314 61.1698 4.32935L61.1015 4.39461C61.0142 4.47897 60.9713 4.58244 60.9713 4.70819C60.9713 4.82917 61.0142 4.93423 61.1015 5.02178C61.1856 5.10774 61.292 5.15231 61.4142 5.15231C61.5349 5.15231 61.6397 5.10773 61.727 5.02337C61.8159 4.93582 61.8588 4.83395 61.8588 4.71456C61.8588 4.58403 61.8127 4.4742 61.7222 4.38188L61.6952 4.35959L61.6683 4.33253L61.6413 4.30706C61.5921 4.25771 61.5508 4.20359 61.5174 4.1447C61.4841 4.08739 61.4682 4.0285 61.4682 3.9696C61.5301 3.9696 61.5873 3.98393 61.6381 4.01417C61.6905 4.04441 61.7492 4.09694 61.8159 4.16857C61.8842 4.2418 61.9461 4.29114 62.0016 4.31979C62.0588 4.34845 62.1255 4.36118 62.2001 4.36118C62.3207 4.36118 62.4255 4.3182 62.5096 4.23225C62.5969 4.1447 62.6382 4.04123 62.6382 3.91707C62.6382 3.79132 62.5954 3.68467 62.508 3.59712C62.4207 3.51116 62.316 3.46659 62.1953 3.46659C62.0651 3.46659 61.9524 3.51753 61.8619 3.61622C61.7698 3.71491 61.7 3.78177 61.6492 3.81201C61.5968 3.84226 61.5365 3.85817 61.4666 3.85817C61.473 3.78336 61.4904 3.71969 61.5158 3.67034C61.5428 3.621 61.5936 3.56528 61.6667 3.49843C61.7397 3.43316 61.7889 3.37108 61.8159 3.31537C61.8429 3.25807 61.8556 3.19121 61.8556 3.11003C61.8556 2.99383 61.8111 2.89195 61.7222 2.80599C61.6333 2.72163 61.527 2.67865 61.4047 2.67865C61.2857 2.67865 61.1825 2.72322 61.0983 2.80918C61.011 2.89673 60.9682 3.00019 60.9682 3.11958C60.9682 3.1928 60.9809 3.25807 61.0094 3.31378C61.038 3.36949 61.0872 3.43316 61.1587 3.50161C61.2301 3.57006 61.2793 3.63055 61.3095 3.68148C61.338 3.73401 61.3539 3.79132 61.3539 3.85499C61.2825 3.85499 61.2237 3.84066 61.1761 3.8136C61.1348 3.78654 61.0634 3.72287 60.9682 3.62577Z" fill="url(#paint0_linear_104_265)"/>
<path d="M57.4978 16.7534H0.595276V16.8393H57.4978V16.7534Z" fill="black"/>
<defs>
<linearGradient id="paint0_linear_104_265" x1="57.9745" y1="3.6581" x2="71.0585" y2="17.201" gradientUnits="userSpaceOnUse">
<stop stop-color="#0066B3"/>
<stop offset="0.4944" stop-color="#00AEEF"/>
<stop offset="1" stop-color="#0066B3"/>
</linearGradient>
</defs>
</svg>
