<svg width="184" height="48" viewBox="0 0 184 48" fill="none" xmlns="http://www.w3.org/2000/svg">
<path fill-rule="evenodd" clip-rule="evenodd" d="M28 5.4945C28 8.24298 24.8212 10.2651 21.9432 8.06629C19.7309 5.18039 21.7499 2 24.4991 2C26.4321 2 28 3.57056 28 5.4945Z" fill="#EB2027"/>
<path fill-rule="evenodd" clip-rule="evenodd" d="M28 42.8125C28 44.759 26.4325 46.3124 24.5 46.3124C22.5675 46.3124 21 44.7394 21 42.8125C21 40.8659 22.5675 39.3126 24.5 39.3126C26.4325 39.2929 28 40.8659 28 42.8125Z" fill="#EB2027"/>
<path fill-rule="evenodd" clip-rule="evenodd" d="M18.8991 33.4137C18.8991 35.5253 17.2871 37.2103 15.2997 37.2103C13.3123 37.2103 11.7003 35.504 11.7003 33.4137C11.7003 31.3021 13.3123 29.6172 15.2997 29.6172C18.7445 29.6172 20.4006 28.9773 20.4006 24.5409C20.4006 20.3177 19.0315 18.8247 15.2997 18.8247C11.1041 18.8247 10.1987 20.851 10.1987 24.5409C10.1987 26.6524 8.58675 28.3374 6.59937 28.3374C4.61199 28.3374 3 26.6311 3 24.5409C3 22.4506 4.61199 20.7443 6.59937 20.7443C10.3312 20.7443 11.7003 19.2513 11.7003 15.0282C11.7003 12.9166 13.3123 11.2103 15.2997 11.2103C17.2871 11.2103 18.8991 12.9166 18.8991 15.0068C18.8991 18.6754 19.8044 20.723 24 20.723C27.7319 20.723 29.1009 19.23 29.1009 15.0068C29.1009 12.8953 30.7129 11.2103 32.7003 11.2103C34.6877 11.2103 36.2997 12.9166 36.2997 15.0068C36.2997 19.23 37.6688 20.723 41.4006 20.723C43.388 20.723 45 22.4293 45 24.5195C45 26.6098 43.388 28.3161 41.4006 28.3161C39.4132 28.3161 37.8013 26.6098 37.8013 24.5195C37.8013 20.851 36.8959 18.8034 32.7003 18.8034C28.5047 18.8034 27.5994 20.8296 27.5994 24.5195C27.5994 28.956 29.2334 29.5958 32.7003 29.5958C34.6877 29.5958 36.2997 31.3021 36.2997 33.3924C36.2997 35.504 34.6877 37.1889 32.7003 37.1889C30.7129 37.1889 29.1009 35.4826 29.1009 33.3924C29.1009 29.4039 27.9527 28.3161 24 28.3161C20.0473 28.3161 18.8991 29.4252 18.8991 33.4137Z" fill="#1B3F73"/>
<path d="M79.6445 38L79.8372 13.1071L69.3482 38H67.5501L57.425 13.1071V38H54L54.1712 5.14924L59.7154 4L69.9047 28.2423L79.5803 5.14924L84.996 4.54209L85.6596 37.9783L79.6445 38Z" fill="#1B3F73"/>
<path d="M113.146 37.9783L109.185 26.7895L96.4703 26.963L92.3817 37.9783H88.0363L101.394 5.10587L108.051 4L120.488 37.9783H113.146ZM108.115 23.6671L102.999 9.35587L97.7332 23.6671H108.115Z" fill="#1B3F73"/>
<path d="M147.375 37.9565L143.5 26.7894L131.128 26.9629L127.146 37.9348H122.908L135.923 5.14914L142.409 4.04327L154.525 37.9565H147.375ZM142.452 23.6669L137.464 9.37746L132.327 23.6669H142.452Z" fill="#EB2027"/>
<path d="M170.621 37.9348C167.753 37.9348 165.334 37.5228 163.322 36.6772C161.309 35.8315 159.704 34.6606 158.441 33.1644C157.2 31.6682 156.279 29.8468 155.701 27.7435C155.123 25.6402 154.845 23.2766 154.845 20.6963C154.845 18.6146 155.123 16.7498 155.68 15.1236C156.236 13.4973 156.985 12.0445 157.949 10.8303C158.912 9.5943 160.025 8.55348 161.288 7.68614C162.551 6.81879 163.878 6.12491 165.291 5.58282C166.682 5.04072 168.138 4.65042 169.594 4.4119C171.071 4.17338 172.505 4.04327 173.896 4.04327C174.753 4.04327 175.673 4.06496 176.636 4.10833C177.6 4.15169 178.52 4.21674 179.419 4.30348C180.318 4.39021 181.174 4.47695 181.945 4.58537C182.716 4.69379 183.358 4.8022 183.872 4.88894L182.502 9.5943C182.009 9.44252 181.281 9.31241 180.382 9.13894C179.462 8.98716 178.477 8.83537 177.45 8.68359C176.401 8.5318 175.373 8.42338 174.367 8.31496C173.361 8.22823 172.505 8.16318 171.841 8.16318C171.092 8.16318 170.428 8.18486 169.851 8.20655C169.273 8.24991 168.737 8.31496 168.245 8.42338C167.753 8.5318 167.303 8.68359 166.875 8.87874C166.447 9.07389 165.997 9.31241 165.569 9.5943C164.435 10.2882 163.664 11.6109 163.257 13.5406C162.851 15.4705 162.658 17.8774 162.658 20.783C162.658 25.2282 163.429 28.5891 164.949 30.8659C166.468 33.1427 168.93 34.292 172.334 34.292C174.26 34.292 176.251 34.1619 178.327 33.88C180.404 33.5981 182.309 33.2078 184 32.709V35.4629C183.058 35.8532 182.031 36.1784 180.939 36.482C179.847 36.7856 178.713 37.0241 177.557 37.2409C176.401 37.4361 175.245 37.6096 174.068 37.6963C172.847 37.8698 171.713 37.9348 170.621 37.9348Z" fill="#1B3F73"/>
<path d="M58.2081 40.0999V43.9524H57.7357V41.1305C57.7357 41.106 57.7357 41.0569 57.7357 41.0078C57.7357 40.9587 57.7357 40.9097 57.7357 40.8851L56.3402 43.2899C56.2973 43.3635 56.2329 43.4125 56.147 43.4125H56.0611C55.9752 43.4125 55.9108 43.3635 55.8679 43.2899L54.4509 40.8606C54.4723 40.9587 54.4723 41.0324 54.4723 41.1305V43.9524H54V40.0999H54.4079C54.4509 40.0999 54.4938 40.0999 54.5153 40.0999C54.5367 40.0999 54.5797 40.1245 54.6012 40.1735L55.9967 42.5537C56.0182 42.6028 56.0396 42.6519 56.0611 42.7009C56.0826 42.75 56.104 42.7991 56.1255 42.8482C56.147 42.7991 56.1684 42.75 56.1899 42.7009C56.2114 42.6519 56.2329 42.6028 56.2543 42.5537L57.6284 40.1981C57.6499 40.149 57.6713 40.1245 57.6928 40.1245C57.7143 40.1245 57.7572 40.1245 57.8001 40.1245L58.2081 40.0999Z" fill="#58595B"/>
<path d="M62.6744 43.951H62.245C62.202 43.951 62.1591 43.951 62.1162 43.9264C62.0947 43.9019 62.0518 43.8774 62.0518 43.8283L61.6653 42.8958H59.8404L59.4539 43.8283C59.4324 43.8528 59.411 43.8774 59.3895 43.9264C59.3466 43.951 59.3251 43.951 59.2607 43.951H58.8313L60.463 40.0985H61.0212L62.6744 43.951ZM61.515 42.5278L60.8709 40.9573C60.8494 40.9083 60.828 40.8592 60.8065 40.7856C60.785 40.712 60.7636 40.6629 60.7421 40.5893C60.6992 40.7365 60.6562 40.8592 60.6133 40.9573L59.9692 42.5278H61.515Z" fill="#58595B"/>
<path d="M66.3234 43.951H65.8296C65.7223 43.951 65.6578 43.9265 65.6149 43.8284L64.5629 42.4542C64.5199 42.4051 64.4985 42.3806 64.4555 42.3561C64.4126 42.3315 64.3697 42.3315 64.2838 42.3315H63.8759V43.9265H63.3391V40.074H64.4985C64.7561 40.074 64.9708 40.0986 65.164 40.1477C65.3573 40.1967 65.5076 40.2703 65.6364 40.3685C65.7652 40.4666 65.8511 40.5648 65.9155 40.712C65.9799 40.8347 66.0014 40.9819 66.0014 41.1537C66.0014 41.3009 65.9799 41.4236 65.9369 41.5463C65.894 41.669 65.8296 41.7672 65.7437 41.8653C65.6578 41.9635 65.5505 42.0371 65.4217 42.1107C65.2929 42.1843 65.164 42.2334 64.9923 42.2579C65.0567 42.2825 65.1211 42.3561 65.164 42.4297L66.3234 43.951ZM64.4555 41.9635C64.6058 41.9635 64.7561 41.9389 64.8849 41.9144C65.0138 41.8898 65.0996 41.8162 65.1855 41.7672C65.2714 41.6935 65.3358 41.6199 65.3787 41.5218C65.4217 41.4236 65.4431 41.3255 65.4431 41.2028C65.4431 40.9819 65.3573 40.8102 65.207 40.6875C65.0567 40.5648 64.7991 40.5157 64.4985 40.5157H63.8973V41.9635H64.4555Z" fill="#58595B"/>
<path d="M67.5265 41.7916H67.7412C67.8056 41.7916 67.87 41.7916 67.913 41.7671C67.9559 41.7426 67.9989 41.718 68.0418 41.6689L69.3944 40.2212C69.4373 40.1721 69.4803 40.1476 69.5232 40.1231C69.5662 40.0985 69.6091 40.0985 69.6735 40.0985H70.1458L68.6 41.7671C68.5571 41.8162 68.5356 41.8407 68.4927 41.8652C68.4497 41.8898 68.4283 41.9143 68.3853 41.9389C68.4283 41.9634 68.4927 41.9879 68.5356 42.0125C68.5785 42.037 68.6215 42.0861 68.6644 42.1352L70.2747 43.951H69.8023C69.7594 43.951 69.7379 43.951 69.7164 43.951C69.695 43.951 69.6735 43.951 69.652 43.9264C69.6306 43.9264 69.6091 43.9019 69.6091 43.9019C69.5876 43.9019 69.5876 43.8774 69.5662 43.8528L68.1706 42.3315C68.1277 42.2824 68.0847 42.2579 68.0418 42.2333C67.9989 42.2088 67.9345 42.2088 67.8486 42.2088H67.5909V43.9755H67.0542V40.1231H67.5909L67.5265 41.7916Z" fill="#58595B"/>
<path d="M73.3656 43.5338V43.951H70.8536V40.0985H73.3656V40.5157H71.4119V41.7916H73.0006V42.2088H71.4119V43.5338H73.3656Z" fill="#58595B"/>
<path d="M76.994 40.5402H75.6844V43.951H75.1477V40.5402H73.8165V40.0985H76.994V40.5402Z" fill="#58595B"/>
<path d="M82.2333 43.951H81.804C81.761 43.951 81.7181 43.951 81.6751 43.9264C81.6322 43.9019 81.6107 43.8774 81.6107 43.8283L81.2243 42.8958H79.3993L79.0129 43.8283C78.9914 43.8528 78.9699 43.8774 78.9485 43.9264C78.9055 43.951 78.8841 43.951 78.8197 43.951H78.3903L80.022 40.0985H80.5802L82.2333 43.951ZM81.074 42.5278L80.4299 40.9573C80.4084 40.9083 80.3869 40.8592 80.3655 40.7856C80.344 40.712 80.3225 40.6629 80.3011 40.5893C80.2581 40.7365 80.2152 40.8592 80.1723 40.9573L79.5282 42.5278H81.074Z" fill="#58595B"/>
<path d="M85.6246 43.1658C85.6461 43.1658 85.689 43.1658 85.7105 43.1903L85.9252 43.4111C85.7534 43.5829 85.5602 43.7301 85.324 43.8283C85.0878 43.9264 84.8087 43.9755 84.4652 43.9755C84.1647 43.9755 83.907 43.9264 83.6708 43.8283C83.4347 43.7301 83.22 43.6074 83.0697 43.4357C82.8979 43.2639 82.7691 43.0676 82.6832 42.8222C82.5974 42.5769 82.533 42.3069 82.533 42.037C82.533 41.7426 82.5759 41.4726 82.6832 41.2518C82.7691 41.0064 82.9194 40.8101 83.0912 40.6383C83.2629 40.4666 83.4776 40.3194 83.7138 40.2457C83.95 40.1476 84.2291 40.0985 84.5296 40.0985C84.8302 40.0985 85.0664 40.1476 85.3025 40.2212C85.5172 40.3194 85.7105 40.4175 85.8822 40.5893L85.7105 40.8347C85.689 40.8592 85.689 40.8592 85.6675 40.8837C85.6461 40.8837 85.6246 40.9083 85.6031 40.9083C85.5602 40.9083 85.5387 40.8837 85.4743 40.8592C85.4314 40.8347 85.367 40.7856 85.2811 40.7365C85.1952 40.6874 85.1093 40.6629 84.9805 40.6138C84.8517 40.5893 84.7229 40.5647 84.5511 40.5647C84.3364 40.5647 84.1432 40.5893 83.9714 40.6629C83.7997 40.7365 83.6494 40.8347 83.5206 40.9573C83.3917 41.08 83.3059 41.2518 83.22 41.4236C83.1556 41.6199 83.1126 41.8162 83.1126 42.0616C83.1126 42.3069 83.1556 42.5278 83.22 42.6995C83.2844 42.8958 83.3917 43.0431 83.5206 43.1658C83.6494 43.2885 83.7997 43.3866 83.9714 43.4602C84.1432 43.5338 84.3364 43.5584 84.5296 43.5584C84.6585 43.5584 84.7658 43.5584 84.8517 43.5338C84.959 43.5338 85.0449 43.5093 85.1308 43.4602C85.2167 43.4357 85.2811 43.3866 85.367 43.3621C85.4314 43.313 85.5172 43.2639 85.5816 43.2148C85.5602 43.1658 85.6031 43.1658 85.6246 43.1658Z" fill="#58595B"/>
<path d="M89.446 43.1658C89.4675 43.1658 89.5104 43.1658 89.5319 43.1903L89.7466 43.4111C89.5748 43.5829 89.3816 43.7301 89.1454 43.8283C88.9093 43.9264 88.6302 43.9755 88.2866 43.9755C87.9861 43.9755 87.7284 43.9264 87.4923 43.8283C87.2561 43.7301 87.0414 43.6074 86.8911 43.4357C86.7194 43.2639 86.5905 43.0676 86.5047 42.8222C86.4188 42.5769 86.3544 42.3069 86.3544 42.037C86.3544 41.7426 86.3973 41.4726 86.5047 41.2518C86.5905 41.0064 86.7408 40.8101 86.9126 40.6383C87.0843 40.4666 87.299 40.3194 87.5352 40.2457C87.7714 40.1476 88.0505 40.0985 88.351 40.0985C88.6516 40.0985 88.8878 40.1476 89.124 40.2212C89.3387 40.3194 89.5319 40.4175 89.7036 40.5893L89.5319 40.8347C89.5104 40.8592 89.5104 40.8592 89.4889 40.8837C89.4675 40.8837 89.446 40.9083 89.4245 40.9083C89.3816 40.9083 89.3601 40.8837 89.2957 40.8592C89.2528 40.8347 89.1884 40.7856 89.1025 40.7365C89.0166 40.6874 88.9307 40.6629 88.8019 40.6138C88.6731 40.5893 88.5443 40.5647 88.3725 40.5647C88.1578 40.5647 87.9646 40.5893 87.7928 40.6629C87.6211 40.7365 87.4708 40.8347 87.342 40.9573C87.2132 41.08 87.1273 41.2518 87.0414 41.4236C86.977 41.6199 86.934 41.8162 86.934 42.0616C86.934 42.3069 86.977 42.5278 87.0414 42.6995C87.1058 42.8958 87.2132 43.0431 87.342 43.1658C87.4708 43.2885 87.6211 43.3866 87.7928 43.4602C87.9646 43.5338 88.1578 43.5584 88.351 43.5584C88.4799 43.5584 88.5872 43.5584 88.6731 43.5338C88.7804 43.5338 88.8663 43.5093 88.9522 43.4602C89.0381 43.4357 89.1025 43.3866 89.1884 43.3621C89.2528 43.313 89.3386 43.2639 89.4031 43.2148C89.3816 43.1658 89.4245 43.1658 89.446 43.1658Z" fill="#58595B"/>
<path d="M93.0113 43.5338V43.951H90.4994V40.0985H93.0113V40.5157H91.0576V41.7916H92.6464V42.2088H91.0576V43.5338H93.0113Z" fill="#58595B"/>
<path d="M95.9744 40.7116C95.9529 40.7361 95.9315 40.7607 95.91 40.7607C95.8885 40.7607 95.867 40.7852 95.8456 40.7852C95.8026 40.7852 95.7812 40.7607 95.7382 40.7361C95.6953 40.7116 95.6309 40.6625 95.5665 40.638C95.5021 40.6135 95.4162 40.5644 95.3303 40.5398C95.2444 40.5153 95.1371 40.4908 94.9868 40.4908C94.858 40.4908 94.7506 40.5153 94.6647 40.5398C94.5789 40.5644 94.493 40.6134 94.4286 40.6625C94.3642 40.7116 94.3212 40.7852 94.2783 40.8588C94.2354 40.9324 94.2354 41.0061 94.2354 41.1042C94.2354 41.2024 94.2568 41.3005 94.3212 41.3741C94.3856 41.4477 94.4501 41.4968 94.5359 41.5459C94.6218 41.595 94.7292 41.644 94.8365 41.6686C94.9439 41.6931 95.0727 41.7422 95.2015 41.7913C95.3303 41.8404 95.4377 41.8649 95.5665 41.914C95.6738 41.963 95.7812 42.0367 95.8671 42.1103C95.9529 42.1839 96.0388 42.282 96.0817 42.3802C96.1462 42.4783 96.1676 42.6256 96.1676 42.7728C96.1676 42.9446 96.1462 43.0918 96.0817 43.239C96.0173 43.3862 95.9315 43.5089 95.8241 43.6316C95.7168 43.7298 95.5665 43.8279 95.3947 43.9015C95.223 43.9752 95.0297 43.9997 94.815 43.9997C94.5574 43.9997 94.2998 43.9506 94.0851 43.8525C93.8704 43.7543 93.6771 43.6316 93.5269 43.4844L93.6771 43.239C93.6986 43.2145 93.7201 43.2145 93.7416 43.1899C93.763 43.1899 93.7845 43.1654 93.806 43.1654C93.8274 43.1654 93.8704 43.1654 93.8918 43.1899C93.9348 43.2145 93.9563 43.239 93.9992 43.2636C94.0421 43.2881 94.0851 43.3126 94.128 43.3617C94.1709 43.3862 94.2354 43.4353 94.2998 43.4599C94.3642 43.4844 94.4501 43.5089 94.5145 43.5335C94.6003 43.558 94.6862 43.558 94.7936 43.558C94.9224 43.558 95.0512 43.5335 95.1371 43.5089C95.2444 43.4844 95.3303 43.4353 95.3947 43.3617C95.4591 43.2881 95.5235 43.2145 95.5665 43.1409C95.6094 43.0427 95.6309 42.9691 95.6309 42.8464C95.6309 42.7237 95.6094 42.6256 95.545 42.552C95.4806 42.4783 95.4162 42.4047 95.3303 42.3556C95.2444 42.3066 95.1371 42.2575 95.0297 42.233C94.9224 42.2084 94.7936 42.1593 94.6647 42.1348C94.5359 42.1103 94.4286 42.0612 94.2998 42.0121C94.1709 41.963 94.0851 41.8894 93.9992 41.8158C93.9133 41.7422 93.8274 41.644 93.7845 41.5214C93.7201 41.3987 93.6986 41.2514 93.6986 41.0797C93.6986 40.9324 93.7201 40.8098 93.7845 40.6871C93.8489 40.5644 93.9133 40.4417 94.0207 40.3435C94.128 40.2454 94.2568 40.1718 94.4071 40.0982C94.5574 40.0491 94.7506 40 94.9439 40C95.18 40 95.3732 40.0245 95.5665 40.0982C95.7597 40.1718 95.91 40.2699 96.0603 40.3926L95.9744 40.7116Z" fill="#58595B"/>
<path d="M99.151 40.7116C99.1296 40.7361 99.1081 40.7607 99.0866 40.7607C99.0652 40.7607 99.0437 40.7852 99.0222 40.7852C98.9793 40.7852 98.9578 40.7607 98.9149 40.7361C98.8719 40.7116 98.8075 40.6625 98.7431 40.638C98.6787 40.6135 98.5928 40.5644 98.5069 40.5398C98.4211 40.5153 98.3137 40.4908 98.1634 40.4908C98.0346 40.4908 97.9273 40.5153 97.8414 40.5398C97.7555 40.5644 97.6696 40.6134 97.6052 40.6625C97.5408 40.7116 97.4979 40.7852 97.4549 40.8588C97.412 40.9324 97.412 41.0061 97.412 41.1042C97.412 41.2024 97.4335 41.3005 97.4979 41.3741C97.5623 41.4477 97.6267 41.4968 97.7126 41.5459C97.7984 41.595 97.9058 41.644 98.0131 41.6686C98.1205 41.6931 98.2493 41.7422 98.3781 41.7913C98.5069 41.8404 98.6143 41.8649 98.7431 41.914C98.8505 41.963 98.9578 42.0367 99.0437 42.1103C99.1296 42.1839 99.2154 42.282 99.2584 42.3802C99.3228 42.4783 99.3443 42.6256 99.3443 42.7728C99.3443 42.9446 99.3228 43.0918 99.2584 43.239C99.194 43.3862 99.1081 43.5089 99.0007 43.6316C98.8934 43.7298 98.7431 43.8279 98.5713 43.9015C98.3996 43.9752 98.2064 43.9997 97.9917 43.9997C97.734 43.9997 97.4764 43.9506 97.2617 43.8525C97.047 43.7543 96.8538 43.6316 96.7035 43.4844L96.8538 43.239C96.8752 43.2145 96.8967 43.2145 96.9182 43.1899C96.9397 43.1899 96.9611 43.1654 96.9826 43.1654C97.0041 43.1654 97.047 43.1654 97.0685 43.1899C97.1114 43.2145 97.1329 43.239 97.1758 43.2636C97.2188 43.2881 97.2617 43.3126 97.3046 43.3617C97.3476 43.3862 97.412 43.4353 97.4764 43.4599C97.5408 43.4844 97.6267 43.5089 97.6911 43.5335C97.777 43.558 97.8629 43.558 97.9702 43.558C98.099 43.558 98.2278 43.5335 98.3137 43.5089C98.4211 43.4844 98.5069 43.4353 98.5713 43.3617C98.6358 43.2881 98.7002 43.2145 98.7431 43.1409C98.7861 43.0427 98.8075 42.9691 98.8075 42.8464C98.8075 42.7237 98.786 42.6256 98.7216 42.552C98.6572 42.4783 98.5928 42.4047 98.5069 42.3556C98.4211 42.3066 98.3137 42.2575 98.2064 42.233C98.099 42.2084 97.9702 42.1593 97.8414 42.1348C97.7126 42.1103 97.6052 42.0612 97.4764 42.0121C97.369 41.963 97.2617 41.8894 97.1758 41.8158C97.0899 41.7422 97.0041 41.644 96.9611 41.5214C96.9182 41.3987 96.8752 41.2514 96.8752 41.0797C96.8752 40.9324 96.8967 40.8098 96.9611 40.6871C97.0255 40.5644 97.0899 40.4417 97.1973 40.3435C97.3046 40.2454 97.4335 40.1718 97.5837 40.0982C97.734 40.0491 97.9273 40 98.1205 40C98.3567 40 98.5499 40.0245 98.7431 40.0982C98.9363 40.1718 99.0866 40.2699 99.2369 40.3926L99.151 40.7116Z" fill="#58595B"/>
<path d="M104.947 43.951H104.518C104.475 43.951 104.432 43.951 104.389 43.9264C104.346 43.9019 104.324 43.8774 104.324 43.8283L103.938 42.8958H102.113L101.727 43.8283C101.705 43.8528 101.684 43.8774 101.662 43.9264C101.619 43.951 101.598 43.951 101.533 43.951H101.104L102.736 40.0985H103.294L104.947 43.951ZM103.809 42.5278L103.165 40.9573C103.143 40.9083 103.122 40.8592 103.101 40.7856C103.079 40.712 103.058 40.6629 103.036 40.5893C102.993 40.7365 102.95 40.8592 102.907 40.9573L102.263 42.5278H103.809Z" fill="#58595B"/>
<path d="M108.898 40.0986V43.951H108.619C108.576 43.951 108.533 43.951 108.512 43.9265C108.49 43.902 108.448 43.8774 108.426 43.8529L106.064 40.9574C106.064 41.0065 106.064 41.0556 106.064 41.0801C106.064 41.1046 106.064 41.1537 106.064 41.2028V43.951H105.592V40.0986H105.871C105.893 40.0986 105.914 40.0986 105.936 40.0986C105.957 40.0986 105.979 40.0986 105.979 40.0986C106 40.0986 106 40.1231 106.021 40.1231C106.043 40.1231 106.043 40.1476 106.064 40.1722L108.426 43.0677C108.426 43.0186 108.426 42.9695 108.426 42.9204C108.426 42.8714 108.426 42.8468 108.426 42.7978V40.074L108.898 40.0986Z" fill="#58595B"/>
<path d="M113.364 43.951H112.935C112.892 43.951 112.849 43.951 112.806 43.9264C112.763 43.9019 112.741 43.8774 112.741 43.8283L112.355 42.8958H110.53L110.144 43.8283C110.122 43.8528 110.101 43.8774 110.079 43.9264C110.036 43.951 110.015 43.951 109.95 43.951H109.521L111.153 40.0985H111.711L113.364 43.951ZM112.205 42.5278L111.56 40.9573C111.539 40.9083 111.518 40.8592 111.496 40.7856C111.475 40.712 111.453 40.6629 111.432 40.5893C111.389 40.7365 111.346 40.8592 111.303 40.9573L110.659 42.5278H112.205Z" fill="#58595B"/>
<path d="M116.305 43.5093V43.951H114.008V40.0985H114.545V43.5093H116.305Z" fill="#58595B"/>
<path d="M118.023 42.4295V43.9754H117.464V42.4295L115.983 40.1229H116.455C116.498 40.1229 116.541 40.1229 116.563 40.1475C116.584 40.172 116.627 40.1965 116.627 40.2456L117.55 41.7424C117.593 41.816 117.615 41.8651 117.636 41.9142C117.658 41.9633 117.7 42.0369 117.7 42.086C117.722 42.0369 117.743 41.9633 117.765 41.9142C117.786 41.8651 117.829 41.7915 117.851 41.7424L118.774 40.2456C118.795 40.2211 118.817 40.1965 118.838 40.172C118.86 40.1475 118.903 40.1475 118.946 40.1475H119.44L118.023 42.4295Z" fill="#58595B"/>
<path d="M122.897 40.5402H121.588V43.951H121.051V40.5402H119.72V40.0985H122.897V40.5402Z" fill="#58595B"/>
<path d="M124.163 43.951H123.605V40.0985H124.163V43.951Z" fill="#58595B"/>
<path d="M128.179 43.1658C128.201 43.1658 128.243 43.1658 128.265 43.1903L128.48 43.4111C128.308 43.5829 128.115 43.7301 127.878 43.8283C127.642 43.9264 127.363 43.9755 127.02 43.9755C126.719 43.9755 126.461 43.9264 126.225 43.8283C125.989 43.7301 125.774 43.6074 125.624 43.4357C125.452 43.2639 125.324 43.0676 125.238 42.8222C125.152 42.5769 125.087 42.3069 125.087 42.037C125.087 41.7426 125.13 41.4726 125.238 41.2518C125.324 41.0064 125.474 40.8101 125.646 40.6383C125.817 40.4666 126.032 40.3194 126.268 40.2457C126.504 40.1476 126.784 40.0985 127.084 40.0985C127.385 40.0985 127.621 40.1476 127.857 40.2212C128.072 40.3194 128.265 40.4175 128.437 40.5893L128.265 40.8347C128.243 40.8592 128.243 40.8592 128.222 40.8837C128.201 40.8837 128.179 40.9083 128.158 40.9083C128.115 40.9083 128.093 40.8837 128.029 40.8592C127.986 40.8347 127.921 40.7856 127.836 40.7365C127.75 40.6874 127.664 40.6629 127.535 40.6138C127.406 40.5647 127.277 40.5647 127.106 40.5647C126.891 40.5647 126.698 40.5893 126.526 40.6629C126.354 40.7365 126.204 40.8347 126.075 40.9573C125.946 41.08 125.86 41.2518 125.774 41.4236C125.71 41.6199 125.667 41.8162 125.667 42.0616C125.667 42.3069 125.71 42.5278 125.774 42.6995C125.839 42.8958 125.946 43.0431 126.075 43.1658C126.204 43.2885 126.354 43.3866 126.526 43.4602C126.698 43.5338 126.891 43.5584 127.084 43.5584C127.213 43.5584 127.32 43.5584 127.406 43.5338C127.513 43.5338 127.599 43.5093 127.685 43.4602C127.771 43.4357 127.836 43.3866 127.921 43.3621C128.007 43.3375 128.072 43.2639 128.136 43.2148C128.115 43.1658 128.136 43.1658 128.179 43.1658Z" fill="#58595B"/>
<path d="M131.292 40.7116C131.27 40.7361 131.249 40.7607 131.227 40.7607C131.206 40.7607 131.184 40.7852 131.163 40.7852C131.12 40.7852 131.098 40.7607 131.055 40.7361C131.013 40.7116 130.948 40.6625 130.884 40.638C130.819 40.6135 130.733 40.5644 130.648 40.5398C130.562 40.5153 130.454 40.4908 130.304 40.4908C130.175 40.4908 130.068 40.5153 129.982 40.5398C129.896 40.5644 129.81 40.6134 129.746 40.6625C129.681 40.7116 129.638 40.7852 129.596 40.8588C129.553 40.9324 129.553 41.0061 129.553 41.1042C129.553 41.2024 129.574 41.3005 129.638 41.3741C129.703 41.4477 129.767 41.4968 129.853 41.5459C129.939 41.595 130.046 41.644 130.154 41.6686C130.261 41.6931 130.39 41.7422 130.519 41.7913C130.648 41.8404 130.755 41.8649 130.884 41.914C130.991 41.963 131.098 42.0367 131.184 42.1103C131.27 42.1839 131.356 42.282 131.399 42.3802C131.463 42.4783 131.485 42.6256 131.485 42.7728C131.485 42.9446 131.463 43.0918 131.399 43.239C131.335 43.3862 131.249 43.5089 131.141 43.6316C131.034 43.7298 130.884 43.8279 130.712 43.9015C130.54 43.9752 130.347 43.9997 130.132 43.9997C129.875 43.9997 129.617 43.9506 129.402 43.8525C129.188 43.7543 128.994 43.6316 128.844 43.4844L128.994 43.239C129.016 43.2145 129.037 43.2145 129.059 43.1899C129.08 43.1899 129.102 43.1654 129.123 43.1654C129.145 43.1654 129.188 43.1654 129.209 43.1899C129.252 43.2145 129.274 43.239 129.316 43.2636C129.359 43.2881 129.402 43.3126 129.445 43.3617C129.488 43.3862 129.553 43.4353 129.617 43.4599C129.681 43.4844 129.767 43.5089 129.832 43.5335C129.918 43.558 130.003 43.558 130.111 43.558C130.24 43.558 130.368 43.5335 130.454 43.5089C130.562 43.4844 130.648 43.4353 130.712 43.3617C130.776 43.2881 130.841 43.2145 130.884 43.1409C130.927 43.0427 130.948 42.9691 130.948 42.8464C130.948 42.7237 130.927 42.6256 130.862 42.552C130.798 42.4783 130.733 42.4047 130.648 42.3556C130.562 42.3066 130.454 42.2575 130.347 42.233C130.24 42.2084 130.111 42.1593 129.982 42.1348C129.853 42.1103 129.746 42.0612 129.617 42.0121C129.488 41.963 129.402 41.8894 129.316 41.8158C129.231 41.7422 129.145 41.644 129.102 41.5214C129.059 41.3987 129.016 41.2514 129.016 41.0797C129.016 40.9324 129.037 40.8098 129.102 40.6871C129.166 40.5644 129.231 40.4417 129.338 40.3435C129.445 40.2454 129.574 40.1718 129.724 40.0982C129.875 40.0491 130.068 40 130.261 40C130.497 40 130.691 40.0245 130.884 40.0982C131.077 40.1718 131.227 40.2699 131.378 40.3926L131.292 40.7116Z" fill="#58595B"/>
<path d="M137.089 43.951H136.659C136.616 43.951 136.573 43.951 136.53 43.9264C136.509 43.9019 136.466 43.8774 136.466 43.8283L136.08 42.8958H134.255L133.868 43.8283C133.847 43.8528 133.825 43.8774 133.804 43.9264C133.761 43.951 133.739 43.951 133.675 43.951H133.246L134.877 40.0985H135.436L137.089 43.951ZM135.951 42.5278L135.307 40.9573C135.285 40.9083 135.264 40.8592 135.242 40.7856C135.221 40.712 135.199 40.6629 135.178 40.5893C135.135 40.7365 135.092 40.8592 135.049 40.9573L134.405 42.5278H135.951Z" fill="#58595B"/>
<path d="M141.039 40.0986V43.951H140.76C140.717 43.951 140.674 43.951 140.653 43.9265C140.631 43.902 140.588 43.8774 140.567 43.8529L138.205 40.9574C138.205 41.0065 138.205 41.0556 138.205 41.0801C138.205 41.1046 138.205 41.1537 138.205 41.2028V43.951H137.733V40.0986H138.012C138.033 40.0986 138.055 40.0986 138.076 40.0986C138.098 40.0986 138.119 40.0986 138.119 40.0986C138.141 40.0986 138.141 40.1231 138.162 40.1231C138.184 40.1231 138.184 40.1476 138.205 40.1722L140.567 43.0677C140.567 43.0186 140.567 42.9695 140.567 42.9204C140.567 42.8714 140.567 42.8468 140.567 42.7978V40.074L141.039 40.0986Z" fill="#58595B"/>
<path d="M145.718 42.0369C145.718 42.3313 145.675 42.5767 145.568 42.8221C145.482 43.0675 145.332 43.2638 145.16 43.4356C144.988 43.6073 144.774 43.73 144.516 43.8282C144.258 43.9263 144.001 43.9754 143.7 43.9754H142.176V40.1229H143.7C144.001 40.1229 144.28 40.172 144.516 40.2702C144.774 40.3683 144.967 40.491 145.16 40.6628C145.332 40.8345 145.461 41.0308 145.568 41.2762C145.654 41.4725 145.718 41.7424 145.718 42.0369ZM145.139 42.0369C145.139 41.7915 145.096 41.5952 145.031 41.3989C144.967 41.2026 144.86 41.0554 144.731 40.9327C144.602 40.81 144.452 40.7118 144.28 40.6382C144.108 40.5646 143.893 40.5401 143.679 40.5401H142.713V43.5582H143.679C143.893 43.5582 144.087 43.5337 144.28 43.4601C144.452 43.3865 144.602 43.2883 144.731 43.1656C144.86 43.0429 144.945 42.8712 145.031 42.6994C145.117 42.4786 145.139 42.2577 145.139 42.0369Z" fill="#58595B"/>
<path d="M151.044 43.1658C151.066 43.1658 151.108 43.1658 151.13 43.1903L151.345 43.4111C151.173 43.5829 150.98 43.7301 150.743 43.8283C150.507 43.9264 150.228 43.9755 149.885 43.9755C149.584 43.9755 149.326 43.9264 149.09 43.8283C148.854 43.7301 148.639 43.6074 148.489 43.4357C148.317 43.2639 148.189 43.0676 148.103 42.8222C148.017 42.5769 147.952 42.3069 147.952 42.037C147.952 41.7426 147.995 41.4726 148.103 41.2518C148.189 41.0064 148.339 40.8101 148.511 40.6383C148.682 40.4666 148.897 40.3194 149.133 40.2457C149.369 40.1476 149.648 40.0985 149.949 40.0985C150.25 40.0985 150.486 40.1476 150.722 40.2212C150.937 40.3194 151.13 40.4175 151.302 40.5893L151.13 40.8347C151.108 40.8592 151.108 40.8592 151.087 40.8837C151.066 40.8837 151.044 40.9083 151.023 40.9083C150.98 40.9083 150.958 40.8837 150.894 40.8592C150.851 40.8347 150.786 40.7856 150.701 40.7365C150.615 40.6874 150.529 40.6629 150.4 40.6138C150.271 40.5893 150.142 40.5647 149.971 40.5647C149.756 40.5647 149.563 40.5893 149.391 40.6629C149.219 40.7365 149.069 40.8347 148.94 40.9573C148.811 41.08 148.725 41.2518 148.639 41.4236C148.575 41.6199 148.532 41.8162 148.532 42.0616C148.532 42.3069 148.575 42.5278 148.639 42.6995C148.704 42.8958 148.811 43.0431 148.94 43.1658C149.069 43.2885 149.219 43.3866 149.391 43.4602C149.563 43.5338 149.756 43.5584 149.949 43.5584C150.078 43.5584 150.185 43.5584 150.271 43.5338C150.378 43.5338 150.464 43.5093 150.55 43.4602C150.636 43.4357 150.701 43.3866 150.786 43.3621C150.851 43.313 150.937 43.2639 151.001 43.2148C150.98 43.1658 151.001 43.1658 151.044 43.1658Z" fill="#58595B"/>
<path d="M155.766 42.0371C155.766 42.3315 155.723 42.6014 155.616 42.8223C155.53 43.0677 155.38 43.264 155.208 43.4357C155.036 43.6075 154.822 43.7547 154.564 43.8284C154.306 43.9265 154.049 43.9756 153.748 43.9756C153.447 43.9756 153.168 43.9265 152.932 43.8284C152.696 43.7302 152.481 43.6075 152.288 43.4357C152.116 43.264 151.987 43.0431 151.88 42.8223C151.794 42.5769 151.73 42.307 151.73 42.0371C151.73 41.7672 151.773 41.4727 151.88 41.2519C151.966 41.0065 152.116 40.8102 152.288 40.6384C152.46 40.4666 152.675 40.3194 152.932 40.2213C153.168 40.1231 153.447 40.074 153.748 40.074C154.049 40.074 154.328 40.1231 154.564 40.2213C154.822 40.3194 155.015 40.4421 155.208 40.6384C155.38 40.8102 155.509 41.031 155.616 41.2519C155.723 41.4727 155.766 41.7426 155.766 42.0371ZM155.186 42.0371C155.186 41.7917 155.144 41.5954 155.079 41.3991C155.015 41.2028 154.907 41.0556 154.779 40.9329C154.65 40.8102 154.499 40.712 154.328 40.6384C154.156 40.5648 153.941 40.5403 153.727 40.5403C153.512 40.5403 153.319 40.5648 153.125 40.6384C152.954 40.712 152.803 40.8102 152.675 40.9329C152.546 41.0556 152.46 41.2273 152.374 41.3991C152.31 41.5954 152.267 41.7917 152.267 42.0371C152.267 42.2825 152.31 42.4788 152.374 42.6751C152.438 42.8714 152.546 43.0186 152.675 43.1413C152.803 43.264 152.954 43.3621 153.125 43.4357C153.297 43.5094 153.512 43.5339 153.727 43.5339C153.941 43.5339 154.134 43.5094 154.328 43.4357C154.521 43.3621 154.65 43.264 154.779 43.1413C154.907 43.0186 154.993 42.8468 155.079 42.6751C155.165 42.4788 155.186 42.2579 155.186 42.0371Z" fill="#58595B"/>
<path d="M159.954 40.0986V43.951H159.675C159.632 43.951 159.589 43.951 159.568 43.9265C159.546 43.902 159.503 43.8774 159.482 43.8529L157.12 40.9574C157.12 41.0065 157.12 41.0556 157.12 41.0801C157.12 41.1046 157.12 41.1537 157.12 41.2028V43.951H156.648V40.0986H156.927C156.949 40.0986 156.97 40.0986 156.991 40.0986C157.013 40.0986 157.034 40.0986 157.034 40.0986C157.056 40.0986 157.056 40.1231 157.077 40.1231C157.099 40.1231 157.099 40.1476 157.12 40.1722L159.482 43.0677C159.482 43.0186 159.482 42.9695 159.482 42.9204C159.482 42.8714 159.482 42.8468 159.482 42.7978V40.074L159.954 40.0986Z" fill="#58595B"/>
<path d="M163.175 40.7116C163.153 40.7361 163.132 40.7607 163.11 40.7607C163.089 40.7607 163.067 40.7852 163.046 40.7852C163.003 40.7852 162.981 40.7607 162.938 40.7361C162.895 40.7116 162.831 40.6625 162.767 40.638C162.702 40.6135 162.616 40.5644 162.531 40.5398C162.445 40.5153 162.337 40.4908 162.187 40.4908C162.058 40.4908 161.951 40.5153 161.865 40.5398C161.779 40.5644 161.693 40.6134 161.629 40.6625C161.564 40.7116 161.521 40.7852 161.478 40.8588C161.436 40.9324 161.436 41.0061 161.436 41.1042C161.436 41.2024 161.457 41.3005 161.521 41.3741C161.586 41.4477 161.65 41.4968 161.736 41.5459C161.822 41.595 161.929 41.644 162.037 41.6686C162.144 41.6931 162.273 41.7422 162.402 41.7913C162.531 41.8404 162.638 41.8649 162.767 41.914C162.874 41.963 162.981 42.0367 163.067 42.1103C163.153 42.1839 163.239 42.282 163.282 42.3802C163.346 42.4783 163.368 42.6256 163.368 42.7728C163.368 42.9446 163.346 43.0918 163.282 43.239C163.218 43.3862 163.132 43.5089 163.024 43.6316C162.917 43.7298 162.767 43.8279 162.595 43.9015C162.423 43.9752 162.23 43.9997 162.015 43.9997C161.758 43.9997 161.5 43.9506 161.285 43.8525C161.071 43.7543 160.877 43.6316 160.727 43.4844L160.877 43.239C160.899 43.2145 160.92 43.2145 160.942 43.1899C160.963 43.1899 160.985 43.1654 161.006 43.1654C161.028 43.1654 161.071 43.1654 161.092 43.1899C161.135 43.2145 161.156 43.239 161.199 43.2636C161.242 43.2881 161.285 43.3126 161.328 43.3617C161.371 43.3862 161.436 43.4353 161.5 43.4599C161.564 43.4844 161.65 43.5089 161.715 43.5335C161.801 43.558 161.886 43.558 161.994 43.558C162.123 43.558 162.251 43.5335 162.337 43.5089C162.445 43.4844 162.531 43.4353 162.595 43.3617C162.659 43.2881 162.724 43.2145 162.767 43.1409C162.81 43.0427 162.831 42.9691 162.831 42.8464C162.831 42.7237 162.81 42.6256 162.745 42.552C162.681 42.4783 162.616 42.4047 162.531 42.3556C162.445 42.3066 162.337 42.2575 162.23 42.233C162.123 42.2084 161.994 42.1593 161.865 42.1348C161.736 42.1103 161.629 42.0612 161.5 42.0121C161.393 41.963 161.285 41.8894 161.199 41.8158C161.114 41.7422 161.028 41.644 160.985 41.5214C160.92 41.3987 160.899 41.2514 160.899 41.0797C160.899 40.9324 160.92 40.8098 160.985 40.6871C161.049 40.5644 161.114 40.4417 161.221 40.3435C161.328 40.2454 161.457 40.1718 161.607 40.0982C161.758 40.0491 161.951 40 162.144 40C162.38 40 162.573 40.0245 162.767 40.0982C162.96 40.1718 163.11 40.2699 163.26 40.3926L163.175 40.7116Z" fill="#58595B"/>
<path d="M165.857 43.5337C166.029 43.5337 166.179 43.5092 166.308 43.4601C166.437 43.411 166.544 43.3374 166.651 43.2393C166.737 43.1411 166.823 43.0184 166.866 42.8957C166.909 42.7485 166.931 42.6013 166.931 42.454V40.1229H167.467V42.454C167.467 42.6749 167.424 42.8957 167.36 43.0675C167.296 43.2638 167.188 43.411 167.038 43.5582C166.888 43.7055 166.737 43.8036 166.523 43.8772C166.329 43.9509 166.093 43.9999 165.857 43.9999C165.621 43.9999 165.385 43.9509 165.191 43.8772C164.998 43.8036 164.827 43.6809 164.676 43.5582C164.526 43.411 164.419 43.2638 164.354 43.0675C164.29 42.8712 164.247 42.6749 164.247 42.454V40.1229H164.784V42.454C164.784 42.6258 164.805 42.773 164.848 42.8957C164.891 43.0429 164.977 43.1411 165.063 43.2393C165.149 43.3374 165.256 43.411 165.406 43.4601C165.556 43.5092 165.707 43.5337 165.857 43.5337Z" fill="#58595B"/>
<path d="M170.881 43.5093V43.951H168.584V40.0985H169.12V43.5093H170.881Z" fill="#58595B"/>
<path d="M173.823 40.5402H172.513V43.951H171.976V40.5402H170.645V40.0985H173.823V40.5402Z" fill="#58595B"/>
<path d="M175.09 43.951H174.553V40.0985H175.111V43.951H175.09Z" fill="#58595B"/>
<path d="M179.534 40.0986V43.951H179.255C179.212 43.951 179.169 43.951 179.148 43.9265C179.126 43.902 179.083 43.8774 179.062 43.8529L176.7 40.9574C176.7 41.0065 176.7 41.0556 176.7 41.0801C176.7 41.1046 176.7 41.1537 176.7 41.2028V43.951H176.228V40.0986H176.507C176.528 40.0986 176.55 40.0986 176.571 40.0986C176.593 40.0986 176.614 40.0986 176.614 40.0986C176.636 40.0986 176.636 40.1231 176.657 40.1231C176.679 40.1231 176.679 40.1476 176.7 40.1722L179.062 43.0677C179.062 43.0186 179.062 42.9695 179.062 42.9204C179.062 42.8714 179.062 42.8468 179.062 42.7978V40.074L179.534 40.0986Z" fill="#58595B"/>
<path d="M184 42.1106V43.5829C183.807 43.7301 183.571 43.8283 183.356 43.9019C183.12 43.9755 182.862 44.0001 182.604 44.0001C182.282 44.0001 181.982 43.951 181.724 43.8528C181.466 43.7547 181.23 43.632 181.059 43.4602C180.887 43.2885 180.737 43.0921 180.629 42.8468C180.522 42.6014 180.479 42.3315 180.479 42.0615C180.479 41.7671 180.522 41.4972 180.629 41.2518C180.737 41.0064 180.865 40.8101 181.037 40.6383C181.209 40.4666 181.445 40.3194 181.681 40.2457C181.939 40.1476 182.218 40.0985 182.54 40.0985C182.712 40.0985 182.841 40.0985 182.991 40.1231C183.12 40.1476 183.248 40.1721 183.377 40.2212C183.485 40.2703 183.613 40.3194 183.699 40.3684C183.807 40.4175 183.893 40.4911 183.978 40.5647L183.828 40.8101C183.807 40.8347 183.764 40.8592 183.742 40.8837C183.699 40.8837 183.656 40.8837 183.613 40.8592C183.571 40.8347 183.506 40.8101 183.463 40.761C183.399 40.7365 183.334 40.6874 183.248 40.6629C183.163 40.6383 183.077 40.6138 182.948 40.5893C182.841 40.5647 182.69 40.5647 182.54 40.5647C182.304 40.5647 182.111 40.5893 181.917 40.6629C181.724 40.7365 181.574 40.8347 181.445 40.9573C181.316 41.08 181.209 41.2518 181.144 41.4236C181.08 41.6199 181.037 41.8162 181.037 42.0615C181.037 42.3069 181.08 42.5278 181.144 42.6995C181.209 42.8958 181.316 43.0431 181.445 43.1903C181.574 43.313 181.746 43.4357 181.939 43.5093C182.132 43.5829 182.347 43.6074 182.583 43.6074C182.776 43.6074 182.948 43.5829 183.098 43.5584C183.248 43.5093 183.399 43.4602 183.528 43.3866V42.5523H182.883C182.841 42.5523 182.819 42.5523 182.798 42.5278C182.776 42.5032 182.755 42.4787 182.755 42.4542V42.1597L184 42.1106Z" fill="#58595B"/>
</svg>
