<?xml version="1.0" encoding="utf-8"?>
<!-- Generator: Adobe Illustrator 23.0.5, SVG Export Plug-In . SVG Version: 6.00 Build 0)  -->
<svg version="1.1" id="Layer_1" xmlns="http://www.w3.org/2000/svg" xmlns:xlink="http://www.w3.org/1999/xlink" x="0px" y="0px"
	 viewBox="0 0 16 16" style="enable-background:new 0 0 16 16;" xml:space="preserve">
<style type="text/css">
	.st0{fill:#3624A0;}
	.st1{fill:url(#SVGID_1_);}
</style>
<g>
	<g>
		<path class="st0" d="M5.83,2.14V2.3c-0.58,0.08-1.09,0.18-1.55,0.3C1.71,3.3,0.96,4.55,0.77,5.02C0.75,5.04,0.72,5.05,0.71,5.07
			V4.59c-0.01-0.22-0.01-0.44,0-0.64c0.01-0.36,0.01-0.7,0.01-1.03C0.71,2.62,0.71,2.34,0.71,2.08C0.72,0.89,1.8,0,3.22,0
			C4.66,0,5.81,0.95,5.83,2.14z"/>
		<path class="st0" d="M5.83,3.09V3.9C5.81,3.9,5.78,3.9,5.75,3.9C5.01,3.85,4.35,3.88,3.8,3.95C3.55,3.97,3.32,4.01,3.11,4.05
			c0,0.01-0.01,0.01-0.01,0.01H3.09c-0.03,0-0.05,0.01-0.07,0.01c-0.21,0.04-0.4,0.09-0.58,0.14c0.66-0.45,1.67-0.86,3.21-1.1
			c0.01,0,0.01-0.01,0.02-0.01C5.69,3.1,5.72,3.1,5.75,3.09C5.78,3.09,5.81,3.09,5.83,3.09z"/>
		<path class="st0" d="M9,13.05c-1.46-0.14-4.71-0.77-6.52-3.5C1.72,8.4,1.37,7.44,1.28,6.65c-0.04-0.42-0.01-0.8,0.07-1.13
			c0.07-0.17,0.16-0.36,0.29-0.55c0.43-0.35,0.93-0.66,1.44-0.91H3.1c0,0,0.01,0,0.01-0.01c0.9-0.44,1.86-0.75,2.54-0.94
			c0.01,0,0.01-0.01,0.02-0.01C5.69,3.1,5.72,3.1,5.75,3.09v6.73c0,0.72,0.22,1.44,0.74,2.02C7.04,12.45,7.87,12.92,9,13.05z"/>
		<path class="st0" d="M13.41,2.87V4.4c0,1.24-1.21,2.25-2.7,2.25H1.28c-0.04-0.42-0.01-0.8,0.07-1.13
			c0.07-0.17,0.16-0.36,0.29-0.55c0.18-0.26,0.43-0.51,0.79-0.76c0.66-0.45,1.67-0.86,3.21-1.1c0.01,0,0.01-0.01,0.02-0.01
			C5.69,3.1,5.72,3.1,5.75,3.09c0.02,0,0.05-0.01,0.07-0.01C6.71,2.96,7.76,2.88,9,2.88L13.41,2.87z"/>
	</g>
	<linearGradient id="SVGID_1_" gradientUnits="userSpaceOnUse" x1="2.728484e-12" y1="10.9465" x2="16" y2="10.9465">
		<stop  offset="5.291010e-03" style="stop-color:#FFC713"/>
		<stop  offset="1" style="stop-color:#F04923"/>
	</linearGradient>
	<path class="st1" d="M0.32,5.89c0,0-1.92,6.15,3.62,9.24C9.1,17.8,16,13.44,16,13.44s-7.18,2.06-11.55-0.89S0.32,5.89,0.32,5.89z"
		/>
</g>
</svg>
